<svg width="114" height="114" viewBox="0 0 114 114" fill="none" xmlns="http://www.w3.org/2000/svg">
<g id="Group 48343">
<circle id="Ellipse 264" cx="57" cy="57" r="57" fill="#E8FFED"/>
<g id="Group 48374">
<path id="Vector" d="M91.0009 75.6055C90.6394 77.0738 90.4587 78.6141 89.8894 80.0013C87.6934 85.388 83.69 88.6758 77.9335 89.7388C74.0024 90.4684 70.3424 89.6577 66.9445 87.6039C66.7367 87.4778 66.4656 87.3877 66.2216 87.3877C65.3088 87.4058 64.3961 87.5048 63.4743 87.5048C52.6029 87.5048 41.7314 87.5048 30.86 87.5048C28.0675 87.5048 25.98 86.2798 24.7329 83.7936C24.3714 83.073 24.0822 82.2263 24.0732 81.4336C24.0371 77.7314 23.8563 74.0022 24.2178 70.327C24.7962 64.3098 28.0224 59.8779 33.3451 56.9954C35.9297 55.5992 38.7312 55.0407 41.6682 55.0497C45.8252 55.0678 49.9822 55.0407 54.1392 55.0497C59.1095 55.0768 63.3207 56.8963 66.7819 60.4454C67.0801 60.7517 67.2789 60.8598 67.7127 60.6346C77.0027 55.6533 88.1091 60.6346 90.5943 70.8674C90.766 71.561 90.8654 72.2727 91.0009 72.9663V75.5875V75.6055ZM61.8838 82.6406C58.3775 76.0289 58.8836 69.8766 63.393 64.0305C61.1067 61.6254 58.3414 60.1301 54.9886 60.0491C50.4792 59.941 45.9788 59.986 41.4694 59.977C39.0113 59.977 36.7069 60.5715 34.6464 61.9317C31.366 64.0846 29.3598 67.1202 29.0706 71.0206C28.8266 74.3174 28.9893 77.6503 28.9984 80.9562C28.9984 81.2444 29.1068 81.5507 29.2514 81.8119C29.649 82.5415 30.3539 82.6496 31.113 82.6496C41.135 82.6496 51.157 82.6496 61.179 82.6496H61.8929L61.8838 82.6406ZM75.2495 85.0727C81.1416 85.1448 85.9673 80.3797 86.0487 74.4165C86.13 68.5524 81.3585 63.6342 75.3851 63.6162C69.3936 63.5981 64.5949 68.1741 64.5046 74.4165C64.4232 80.1905 69.3032 85.0007 75.2495 85.0817V85.0727Z" fill="#C6A64F"/>
<path id="Vector_2" d="M49.1129 23C50.4775 23.3513 51.9144 23.5405 53.2067 24.0719C58.2945 26.1617 61.3851 29.936 62.3792 35.3497C63.5178 41.538 60.3459 47.6363 55.1406 50.6539C49.863 53.7076 42.6605 53.05 38.0788 49.0145C35.1328 46.4203 33.3886 43.1775 32.991 39.3041C32.2319 31.8817 37.0215 25.2249 44.3143 23.4144C44.983 23.2432 45.6699 23.1351 46.3476 23C47.2694 23 48.1821 23 49.1039 23H49.1129ZM47.7484 27.9273C42.272 27.9453 37.8167 32.3861 37.8258 37.8178C37.8258 43.2405 42.3443 47.7264 47.7755 47.7174C53.2338 47.6994 57.6709 43.2585 57.6709 37.7998C57.6709 32.3231 53.2338 27.9183 47.7574 27.9363L47.7484 27.9273Z" fill="#C6A64F"/>
<path id="Vector_3" d="M71.859 74.3625C71.145 73.6598 70.4763 73.0383 69.8347 72.3807C69.1479 71.6691 68.8768 70.8224 69.2111 69.8586C69.5365 68.9037 70.2413 68.3633 71.2173 68.2011C72.0578 68.057 72.7627 68.3813 73.3501 68.9578C73.9826 69.5883 74.5972 70.2369 75.284 70.9395C75.9527 70.2459 76.5491 69.6063 77.1727 69.0028C78.2752 67.9219 79.7301 67.8768 80.7423 68.8677C81.7273 69.8315 81.7092 71.3538 80.67 72.4348C80.0555 73.0743 79.4048 73.6869 78.718 74.3534C79.3958 75.011 80.0374 75.6055 80.6519 76.2271C81.7002 77.299 81.7363 78.8123 80.7513 79.7942C79.7663 80.776 78.2481 80.74 77.1817 79.6951C76.5582 79.0825 75.9617 78.452 75.2117 77.6863C74.5068 78.452 73.9013 79.2357 73.1693 79.8752C71.6782 81.1723 69.5003 80.3977 69.1208 78.47C68.9581 77.6413 69.2382 76.9207 69.8256 76.3262C70.4673 75.6776 71.136 75.0561 71.859 74.3625Z" fill="#C6A64F"/>
</g>
</g>
</svg>
