<svg width="25" height="25" viewBox="0 0 25 25" fill="none" xmlns="http://www.w3.org/2000/svg">
<path d="M22.5 3H21V2C21 1.73478 20.8946 1.48043 20.7071 1.29289C20.5196 1.10536 20.2652 1 20 1H19C18.7348 1 18.4804 1.10536 18.2929 1.29289C18.1054 1.48043 18 1.73478 18 2V3H14V2C14 1.73478 13.8946 1.48043 13.7071 1.29289C13.5196 1.10536 13.2652 1 13 1H12C11.7348 1 11.4804 1.10536 11.2929 1.29289C11.1054 1.48043 11 1.73478 11 2V3H7V2C7 1.73478 6.89464 1.48043 6.70711 1.29289C6.51957 1.10536 6.26522 1 6 1H5C4.73478 1 4.48043 1.10536 4.29289 1.29289C4.10536 1.48043 4 1.73478 4 2V3H2.5C2.10218 3 1.72064 3.15804 1.43934 3.43934C1.15804 3.72064 1 4.10218 1 4.5V22.5C1 22.8978 1.15804 23.2794 1.43934 23.5607C1.72064 23.842 2.10218 24 2.5 24H22.5C22.8978 24 23.2794 23.842 23.5607 23.5607C23.842 23.2794 24 22.8978 24 22.5V4.5C24 4.10218 23.842 3.72064 23.5607 3.43934C23.2794 3.15804 22.8978 3 22.5 3ZM19 2H20V5H19V2ZM12 2H13V5H12V2ZM5 2H6V5H5V2ZM2.5 4H4V5C4 5.26522 4.10536 5.51957 4.29289 5.70711C4.48043 5.89464 4.73478 6 5 6H6C6.26522 6 6.51957 5.89464 6.70711 5.70711C6.89464 5.51957 7 5.26522 7 5V4H11V5C11 5.26522 11.1054 5.51957 11.2929 5.70711C11.4804 5.89464 11.7348 6 12 6H13C13.2652 6 13.5196 5.89464 13.7071 5.70711C13.8946 5.51957 14 5.26522 14 5V4H18V5C18 5.26522 18.1054 5.51957 18.2929 5.70711C18.4804 5.89464 18.7348 6 19 6H20C20.2652 6 20.5196 5.89464 20.7071 5.70711C20.8946 5.51957 21 5.26522 21 5V4H22.5C22.6326 4 22.7598 4.05268 22.8536 4.14645C22.9473 4.24021 23 4.36739 23 4.5V8H2V4.5C2 4.36739 2.05268 4.24021 2.14645 4.14645C2.24021 4.05268 2.36739 4 2.5 4ZM22.5 23H2.5C2.36739 23 2.24021 22.9473 2.14645 22.8536C2.05268 22.7598 2 22.6326 2 22.5V9H23V22.5C23 22.6326 22.9473 22.7598 22.8536 22.8536C22.7598 22.9473 22.6326 23 22.5 23Z" fill="#231F20"/>
<path d="M20.5 15H14.5C14.3674 15 14.2402 15.0527 14.1464 15.1464C14.0527 15.2402 14 15.3674 14 15.5V20.5C14 20.6326 14.0527 20.7598 14.1464 20.8536C14.2402 20.9473 14.3674 21 14.5 21H20.5C20.6326 21 20.7598 20.9473 20.8536 20.8536C20.9473 20.7598 21 20.6326 21 20.5V15.5C21 15.3674 20.9473 15.2402 20.8536 15.1464C20.7598 15.0527 20.6326 15 20.5 15ZM20 20H15V16H20V20ZM6.5 11H4.5C4.36739 11 4.24021 11.0527 4.14645 11.1464C4.05268 11.2402 4 11.3674 4 11.5V13.5C4 13.6326 4.05268 13.7598 4.14645 13.8536C4.24021 13.9473 4.36739 14 4.5 14H6.5C6.63261 14 6.75979 13.9473 6.85355 13.8536C6.94732 13.7598 7 13.6326 7 13.5V11.5C7 11.3674 6.94732 11.2402 6.85355 11.1464C6.75979 11.0527 6.63261 11 6.5 11ZM6 13H5V12H6V13ZM10.5 11H8.5C8.36739 11 8.24021 11.0527 8.14645 11.1464C8.05268 11.2402 8 11.3674 8 11.5V13.5C8 13.6326 8.05268 13.7598 8.14645 13.8536C8.24021 13.9473 8.36739 14 8.5 14H10.5C10.6326 14 10.7598 13.9473 10.8536 13.8536C10.9473 13.7598 11 13.6326 11 13.5V11.5C11 11.3674 10.9473 11.2402 10.8536 11.1464C10.7598 11.0527 10.6326 11 10.5 11ZM10 13H9V12H10V13ZM6.5 16H4.5C4.36739 16 4.24021 16.0527 4.14645 16.1464C4.05268 16.2402 4 16.3674 4 16.5V18.5C4 18.6326 4.05268 18.7598 4.14645 18.8536C4.24021 18.9473 4.36739 19 4.5 19H6.5C6.63261 19 6.75979 18.9473 6.85355 18.8536C6.94732 18.7598 7 18.6326 7 18.5V16.5C7 16.3674 6.94732 16.2402 6.85355 16.1464C6.75979 16.0527 6.63261 16 6.5 16ZM6 18H5V17H6V18ZM10.5 16H8.5C8.36739 16 8.24021 16.0527 8.14645 16.1464C8.05268 16.2402 8 16.3674 8 16.5V18.5C8 18.6326 8.05268 18.7598 8.14645 18.8536C8.24021 18.9473 8.36739 19 8.5 19H10.5C10.6326 19 10.7598 18.9473 10.8536 18.8536C10.9473 18.7598 11 18.6326 11 18.5V16.5C11 16.3674 10.9473 16.2402 10.8536 16.1464C10.7598 16.0527 10.6326 16 10.5 16ZM10 18H9V17H10V18ZM14.5 14H16.5C16.6326 14 16.7598 13.9473 16.8536 13.8536C16.9473 13.7598 17 13.6326 17 13.5V11.5C17 11.3674 16.9473 11.2402 16.8536 11.1464C16.7598 11.0527 16.6326 11 16.5 11H14.5C14.3674 11 14.2402 11.0527 14.1464 11.1464C14.0527 11.2402 14 11.3674 14 11.5V13.5C14 13.6326 14.0527 13.7598 14.1464 13.8536C14.2402 13.9473 14.3674 14 14.5 14ZM15 12H16V13H15V12ZM20.5 11H18.5C18.3674 11 18.2402 11.0527 18.1464 11.1464C18.0527 11.2402 18 11.3674 18 11.5V13.5C18 13.6326 18.0527 13.7598 18.1464 13.8536C18.2402 13.9473 18.3674 14 18.5 14H20.5C20.6326 14 20.7598 13.9473 20.8536 13.8536C20.9473 13.7598 21 13.6326 21 13.5V11.5C21 11.3674 20.9473 11.2402 20.8536 11.1464C20.7598 11.0527 20.6326 11 20.5 11ZM20 13H19V12H20V13Z" fill="#231F20"/>
</svg>
