<svg width="114" height="114" viewBox="0 0 114 114" fill="none" xmlns="http://www.w3.org/2000/svg">
<g id="Group 48343">
<circle id="Ellipse 264" cx="57" cy="57" r="57" fill="#E8FFED"/>
<g id="Group 48342">
<path id="Vector" d="M52.294 54.246C47.3721 54.2338 42.4502 54.2338 37.5282 54.246C35.8632 54.246 34.9361 55.051 34.9727 56.405C35.0032 57.6736 35.9547 58.4909 37.4855 58.5031C39.9434 58.5214 42.4075 58.5031 44.8654 58.5031C47.3233 58.5031 49.7873 58.5092 52.2513 58.5031C53.9347 58.497 54.8617 57.7346 54.8678 56.3867C54.88 55.0205 53.9713 54.246 52.294 54.246Z" fill="#C6A64F"/>
<path id="Vector_2" d="M42.0422 49.9766C43.7439 50.001 45.4516 49.9766 47.1532 49.9766C48.8549 49.9766 50.5626 49.9888 52.2642 49.9766C53.8927 49.9583 54.8685 49.1349 54.8685 47.8175C54.8685 46.5001 54.0086 45.6646 52.4289 45.6402C48.9281 45.5975 45.4211 45.5975 41.9203 45.6402C40.3955 45.6646 39.4745 46.5977 39.5233 47.8663C39.566 49.1471 40.4992 49.9461 42.0483 49.9705L42.0422 49.9766Z" fill="#C6A64F"/>
<path id="Vector_3" d="M52.673 62.7845C51.258 62.7418 49.843 62.7723 48.428 62.7723C47.0131 62.7723 45.592 62.7479 44.1831 62.7723C42.823 62.8089 41.9752 63.6018 41.9264 64.8033C41.9204 64.8948 41.9204 64.9863 41.9264 65.0717C41.9874 66.2244 42.9694 67.1148 44.1282 67.0539C47.007 67.1087 49.8857 67.1087 52.7645 67.0539C53.9477 67.0295 54.8869 66.0536 54.8625 64.8765C54.8381 63.6994 53.8623 62.754 52.6852 62.7784L52.673 62.7845Z" fill="#C6A64F"/>
<path id="Vector_4" d="M56.96 21C37.1015 21 21 37.1015 21 56.96C21 76.8185 37.1015 92.92 56.96 92.92C76.8185 92.92 92.92 76.8185 92.92 56.96C92.92 37.1015 76.8185 21 56.96 21ZM86.4428 68.5482C81.5087 68.5848 74.4582 68.5726 71.2379 68.4994H71.122C70.7195 68.5177 70.3291 68.3713 70.0364 68.0908C69.7375 67.8163 69.5667 67.4321 69.5545 67.0295C69.5545 66.9685 69.5545 66.9015 69.5423 66.8405C69.03 62.2052 68.1457 51.2147 68.1335 51.1049C68.0359 49.9278 67.0051 49.0495 65.828 49.141C64.6509 49.2325 63.7726 50.2693 63.8641 51.4465C63.9007 51.8978 64.7546 62.4857 65.273 67.2247C65.4011 70.3779 68.0359 72.848 71.1891 72.7809C73.2994 72.8236 75.4767 72.848 77.7029 72.848C78.819 72.848 81.6734 72.848 84.363 72.8297C78.88 82.2772 68.6641 88.6385 56.9539 88.6385C39.4557 88.6385 25.2754 74.4521 25.2754 56.96C25.2754 39.4679 39.4618 25.2815 56.96 25.2815C69.7314 25.2815 80.7341 32.8444 85.7475 43.7373L82.8932 43.3225C82.6187 43.2798 82.4174 43.0603 82.3991 42.7858L82.2894 40.7426C82.2894 40.6999 82.2833 40.6511 82.2772 40.6084C82.0515 38.6994 80.5694 37.1808 78.6665 36.9002L71.7746 35.9061H71.7563C69.8534 35.6316 67.9993 36.6685 67.243 38.4372C67.2247 38.4799 67.2064 38.5226 67.1942 38.5653L66.5111 40.4926C66.4196 40.7487 66.1574 40.9073 65.8829 40.8707L60.5462 40.1022C59.3813 39.9132 58.2774 40.6999 58.0883 41.8648C57.8993 43.0298 58.686 44.1337 59.8509 44.3228C59.8814 44.3228 59.9058 44.3289 59.9363 44.335L65.273 45.1034L82.2833 47.5614L87.4309 48.3054C88.2115 51.0561 88.6385 53.9593 88.6385 56.96C88.6385 61.0525 87.8517 64.9559 86.4428 68.5482ZM78.1054 42.6272L70.6646 41.5538L71.1708 40.1388L78.0261 41.1269L78.1054 42.6272Z" fill="#C6A64F"/>
</g>
</g>
</svg>
