<svg width="18" height="18" viewBox="0 0 18 18" fill="none" xmlns="http://www.w3.org/2000/svg">
<path id="Vector" d="M9 0C4.02818 0 0 4.02818 0 9C0 13.9718 4.02818 18 9 18C13.9718 18 18 13.9718 18 9C18 4.02818 13.9718 0 9 0ZM15.2018 6.03273L7.34182 13.9091C7.29 13.9609 7.22182 13.9882 7.14818 13.9882C7.07454 13.9882 7.00636 13.9609 6.95455 13.9091L2.79818 9.73909C2.74909 9.68727 2.72455 9.61636 2.72727 9.54545C2.72727 9.47182 2.75727 9.40364 2.80909 9.35182L4.35 7.80818C4.45636 7.70182 4.62818 7.70182 4.73455 7.80818L7.15636 10.2327L13.2736 4.10455C13.38 3.99818 13.5518 3.99818 13.6582 4.10455L15.1991 5.64818C15.3055 5.75455 15.3055 5.92636 15.1991 6.03273H15.2018Z" fill="#28924F"/>
</svg>
