<svg width="18" height="21" viewBox="0 0 18 21" fill="none" xmlns="http://www.w3.org/2000/svg">
<g id="Delete">
<path id="Delete_2" fill-rule="evenodd" clip-rule="evenodd" d="M17.2871 3.27234C17.6761 3.27234 18 3.59826 18 4.01298V4.39642C18 4.80105 17.6761 5.13706 17.2871 5.13706H0.713853C0.32386 5.13706 0 4.80105 0 4.39642V4.01298C0 3.59826 0.32386 3.27234 0.713853 3.27234H3.62957C4.22185 3.27234 4.7373 2.84753 4.87054 2.24816L5.02323 1.55999C5.26054 0.622582 6.0415 0 6.93527 0H11.0647C11.9488 0 12.7385 0.622583 12.967 1.51054L13.1304 2.24715C13.2627 2.84753 13.7781 3.27234 14.3714 3.27234H17.2871ZM15.8058 17.2892C16.1102 14.4266 16.6432 7.62558 16.6432 7.55696C16.6626 7.3491 16.5955 7.15233 16.4623 6.99391C16.3193 6.84558 16.1384 6.7578 15.9391 6.7578H2.06852C1.86818 6.7578 1.67756 6.84558 1.54529 6.99391C1.41108 7.15233 1.34494 7.3491 1.35467 7.55696C1.35646 7.56957 1.37558 7.80913 1.40755 8.20963C1.54958 9.98884 1.94517 14.9443 2.20079 17.2892C2.38168 19.0167 3.50498 20.1025 5.13206 20.1418C6.38763 20.1711 7.68112 20.1812 9.00379 20.1812C10.2496 20.1812 11.5149 20.1711 12.8094 20.1418C14.4929 20.1125 15.6152 19.046 15.8058 17.2892Z" fill="#FC2222"/>
</g>
</svg>
