<svg width="89" height="89" viewBox="0 0 89 89" fill="none" xmlns="http://www.w3.org/2000/svg">
<rect width="89" height="89" rx="44.5" fill="#FBEAEC"/>
<path d="M51.6667 33.5V31.9666C51.6667 29.8198 51.6667 28.7463 51.2489 27.9263C50.8813 27.2051 50.2949 26.6186 49.5736 26.2511C48.7536 25.8333 47.6802 25.8333 45.5333 25.8333H42.4667C40.3198 25.8333 39.2464 25.8333 38.4264 26.2511C37.7051 26.6186 37.1187 27.2051 36.7511 27.9263C36.3333 28.7463 36.3333 29.8198 36.3333 31.9666V33.5M40.1667 44.0416V53.625M47.8333 44.0416V53.625M26.75 33.5H61.25M57.4167 33.5V54.9666C57.4167 58.1869 57.4167 59.7971 56.79 61.0271C56.2387 62.109 55.359 62.9887 54.2771 63.5399C53.0471 64.1666 51.437 64.1666 48.2167 64.1666H39.7833C36.563 64.1666 34.9529 64.1666 33.7229 63.5399C32.641 62.9887 31.7613 62.109 31.21 61.0271C30.5833 59.7971 30.5833 58.1869 30.5833 54.9666V33.5" stroke="#D82B3F" stroke-width="3" stroke-linecap="round" stroke-linejoin="round"/>
</svg>
