<svg width="15" height="14" viewBox="0 0 15 14" fill="none" xmlns="http://www.w3.org/2000/svg">
<g id="download-cloud-01">
<g id="Vector">
<path fill-rule="evenodd" clip-rule="evenodd" d="M3.74939 4.03742C4.20947 2.36163 5.74301 1.13049 7.56505 1.13049C9.38708 1.13049 10.9206 2.36163 11.3807 4.03742C12.7572 4.35767 13.7824 5.59147 13.7824 7.06528C13.7824 8.14364 13.2329 9.09343 12.4012 9.65015C12.1418 9.82379 11.7907 9.75426 11.6171 9.49485C11.4434 9.23545 11.513 8.88439 11.7724 8.71075C12.304 8.35491 12.652 7.75063 12.652 7.06528C12.652 6.03533 11.8645 5.18866 10.8592 5.09555C10.6031 5.07184 10.3953 4.87822 10.3535 4.62443C10.1332 3.28379 8.96801 2.26093 7.56505 2.26093C6.16209 2.26093 4.99694 3.28379 4.77655 4.62443C4.73483 4.87822 4.52703 5.07184 4.27094 5.09555C3.2656 5.18866 2.47809 6.03533 2.47809 7.06528C2.47809 7.75063 2.82612 8.35491 3.35772 8.71075C3.61712 8.88439 3.68665 9.23545 3.51301 9.49485C3.33937 9.75426 2.98831 9.82379 2.7289 9.65015C1.8972 9.09343 1.34766 8.14364 1.34766 7.06528C1.34766 5.59147 2.3729 4.35766 3.74939 4.03742Z" fill="white"/>
<path fill-rule="evenodd" clip-rule="evenodd" d="M4.90451 9.20908C5.12524 8.98835 5.48312 8.98835 5.70385 9.20908L7.56505 11.0703L9.42625 9.20908C9.64698 8.98835 10.0049 8.98835 10.2256 9.20908C10.4463 9.42982 10.4463 9.78769 10.2256 10.0084L7.96472 12.2693C7.74399 12.49 7.38611 12.49 7.16538 12.2693L4.90451 10.0084C4.68378 9.78769 4.68378 9.42982 4.90451 9.20908Z" fill="white"/>
<path fill-rule="evenodd" clip-rule="evenodd" d="M7.56505 6.21745C7.87721 6.21745 8.13027 6.47051 8.13027 6.78267V11.8696C8.13027 12.1818 7.87721 12.4348 7.56505 12.4348C7.25289 12.4348 6.99983 12.1818 6.99983 11.8696V6.78267C6.99983 6.47051 7.25289 6.21745 7.56505 6.21745Z" fill="white"/>
</g>
</g>
</svg>
