<svg width="23" height="22" viewBox="0 0 23 22" fill="none" xmlns="http://www.w3.org/2000/svg">
<path d="M19.0389 1.77036C18.9861 1.54663 18.8579 1.34792 18.6757 1.20767C18.4936 1.06743 18.2687 0.994214 18.0389 1.00036H15.0389C14.7737 1.00036 14.5193 1.10571 14.3318 1.29325C14.1443 1.48079 14.0389 1.73514 14.0389 2.00036C14.0389 2.26557 14.1443 2.51993 14.3318 2.70746C14.5193 2.895 14.7737 3.00036 15.0389 3.00036H17.2389L19.7789 14.0004H2.29892L4.83892 3.00036H7.03892C7.30413 3.00036 7.55849 2.895 7.74603 2.70746C7.93356 2.51993 8.03892 2.26557 8.03892 2.00036C8.03892 1.73514 7.93356 1.48079 7.74603 1.29325C7.55849 1.10571 7.30413 1.00036 7.03892 1.00036H4.03892C3.80913 0.994214 3.58424 1.06743 3.4021 1.20767C3.21996 1.34792 3.09171 1.54663 3.03892 1.77036C-0.571081 17.5304 0.0389184 12.9204 0.0389184 21.0004C0.0389184 21.2656 0.144275 21.5199 0.331812 21.7075C0.519348 21.895 0.773702 22.0004 1.03892 22.0004H21.0389C21.3041 22.0004 21.5585 21.895 21.746 21.7075C21.9336 21.5199 22.0389 21.2656 22.0389 21.0004C22.0389 13.2004 22.7589 18.0004 19.0389 1.77036ZM20.0389 20.0004H2.03892V16.0004H20.0389V20.0004Z" fill="black"/>
<path d="M6.82876 8.21L10.3288 11.71C10.4217 11.8037 10.5323 11.8781 10.6542 11.9289C10.776 11.9797 10.9067 12.0058 11.0388 12.0058C11.1708 12.0058 11.3015 11.9797 11.4233 11.9289C11.5452 11.8781 11.6558 11.8037 11.7488 11.71L15.2488 8.21C15.4371 8.0217 15.5429 7.7663 15.5429 7.5C15.5429 7.2337 15.4371 6.9783 15.2488 6.79C15.0605 6.6017 14.8051 6.49591 14.5388 6.49591C14.2725 6.49591 14.0171 6.6017 13.8288 6.79L12.0388 8.59V1C12.0388 0.734784 11.9334 0.48043 11.7459 0.292893C11.5583 0.105357 11.304 0 11.0388 0C10.7735 0 10.5192 0.105357 10.3317 0.292893C10.1441 0.48043 10.0388 0.734784 10.0388 1V8.59L8.24876 6.79C8.06046 6.6017 7.80506 6.49591 7.53876 6.49591C7.27246 6.49591 7.01706 6.6017 6.82876 6.79C6.64046 6.9783 6.53467 7.2337 6.53467 7.5C6.53467 7.7663 6.64046 8.0217 6.82876 8.21ZM17.0388 19C17.304 19 17.5583 18.8946 17.7459 18.7071C17.9334 18.5196 18.0388 18.2652 18.0388 18C18.0388 17.7348 17.9334 17.4804 17.7459 17.2929C17.5583 17.1054 17.304 17 17.0388 17C16.7735 17 16.5192 17.1054 16.3317 17.2929C16.1441 17.4804 16.0388 17.7348 16.0388 18C16.0388 18.2652 16.1441 18.5196 16.3317 18.7071C16.5192 18.8946 16.7735 19 17.0388 19ZM11.0388 19H14.0388C14.304 19 14.5583 18.8946 14.7459 18.7071C14.9334 18.5196 15.0388 18.2652 15.0388 18C15.0388 17.7348 14.9334 17.4804 14.7459 17.2929C14.5583 17.1054 14.304 17 14.0388 17H11.0388C10.7735 17 10.5192 17.1054 10.3317 17.2929C10.1441 17.4804 10.0388 17.7348 10.0388 18C10.0388 18.2652 10.1441 18.5196 10.3317 18.7071C10.5192 18.8946 10.7735 19 11.0388 19Z" fill="black"/>
</svg>
