<svg width="21" height="21" viewBox="0 0 21 21" fill="none" xmlns="http://www.w3.org/2000/svg">
<path id="Edit Square" fill-rule="evenodd" clip-rule="evenodd" d="M14.9008 0.0104289C16.3445 -0.0802925 17.768 0.423715 18.8407 1.41157C19.8232 2.49015 20.3244 3.92153 20.2442 5.38315V14.798C20.3345 16.2596 19.8232 17.691 18.8507 18.7696C17.7781 19.7574 16.3445 20.2615 14.9008 20.1707H5.53736C4.08372 20.2615 2.66015 19.7574 1.58746 18.7696C0.604996 17.691 0.103739 16.2596 0.193966 14.798V5.38315C0.103739 3.92153 0.604996 2.49015 1.58746 1.41157C2.66015 0.423715 4.08372 -0.0802925 5.53736 0.0104289H14.9008ZM9.1962 14.9796L15.9431 8.17546C16.5546 7.55049 16.5546 6.54247 15.9431 5.92758L14.6398 4.61716C14.0183 3.9922 13.0158 3.9922 12.3942 4.61716L11.7225 5.30261C11.6223 5.40342 11.6223 5.57478 11.7225 5.67558C11.7225 5.67558 13.3165 7.26824 13.3466 7.30856C13.4569 7.42953 13.5271 7.59081 13.5271 7.77225C13.5271 8.13514 13.2363 8.43754 12.8654 8.43754C12.695 8.43754 12.5346 8.36698 12.4243 8.2561L10.7501 6.58279C10.6699 6.50215 10.5295 6.50215 10.4493 6.58279L5.66735 11.391C5.33652 11.7237 5.14604 12.1672 5.13602 12.641L5.07587 15.03C5.07587 15.161 5.11597 15.282 5.20619 15.3727C5.29642 15.4634 5.41672 15.5138 5.54705 15.5138H7.90295C8.38416 15.5138 8.84532 15.3223 9.1962 14.9796Z" fill="#28924F"/>
</svg>
