<svg width="20" height="21" viewBox="0 0 20 21" fill="none" xmlns="http://www.w3.org/2000/svg">
<path id="Edit Square" fill-rule="evenodd" clip-rule="evenodd" d="M14.6653 0.0104289C16.1038 -0.0802925 17.5224 0.423715 18.5913 1.41157C19.5703 2.49015 20.0697 3.92153 19.9898 5.38315V14.798C20.0797 16.2596 19.5703 17.691 18.6013 18.7696C17.5323 19.7574 16.1038 20.2615 14.6653 20.1707H5.33487C3.88636 20.2615 2.46781 19.7574 1.39891 18.7696C0.419915 17.691 -0.0795724 16.2596 0.0103353 14.798V5.38315C-0.0795724 3.92153 0.419915 2.49015 1.39891 1.41157C2.46781 0.423715 3.88636 -0.0802925 5.33487 0.0104289H14.6653ZM8.98113 14.9795L15.7042 8.17535C16.3136 7.55038 16.3136 6.54237 15.7042 5.92748L14.4056 4.61706C13.7862 3.99209 12.7872 3.99209 12.1679 4.61706L11.4985 5.30251C11.3986 5.40331 11.3986 5.57467 11.4985 5.67547C11.4985 5.67547 13.0869 7.26814 13.1169 7.30846C13.2268 7.42942 13.2967 7.5907 13.2967 7.77215C13.2967 8.13503 13.007 8.43744 12.6374 8.43744C12.4675 8.43744 12.3077 8.36687 12.1978 8.25599L10.5295 6.58269C10.4496 6.50205 10.3098 6.50205 10.2298 6.58269L5.46474 11.3909C5.13507 11.7236 4.94527 12.1671 4.93528 12.6409L4.87534 15.0299C4.87534 15.1609 4.9153 15.2819 5.00521 15.3726C5.09512 15.4633 5.21499 15.5137 5.34486 15.5137H7.69245C8.17196 15.5137 8.63149 15.3222 8.98113 14.9795Z" fill="#4053F9"/>
</svg>
