<svg width="24" height="24" viewBox="0 0 24 24" fill="none" xmlns="http://www.w3.org/2000/svg">
<path d="M11 3.99998H6.8C5.12 3.99998 4.28 3.99998 3.638 4.32698C3.07354 4.6146 2.61462 5.07352 2.327 5.63798C2 6.27998 2 7.11998 2 8.79998V17.2C2 18.88 2 19.72 2.327 20.362C2.61462 20.9264 3.07354 21.3854 3.638 21.673C4.28 22 5.12 22 6.8 22H15.2C16.88 22 17.72 22 18.362 21.673C18.9265 21.3854 19.3854 20.9264 19.673 20.362C20 19.72 20 18.88 20 17.2V13M8 16H9.675C10.164 16 10.408 16 10.638 15.945C10.842 15.895 11.038 15.815 11.217 15.705C11.418 15.582 11.591 15.409 11.937 15.063L21.5 5.49998C21.8978 5.10216 22.1213 4.56259 22.1213 3.99998C22.1213 3.43737 21.8978 2.89781 21.5 2.49998C21.1022 2.10216 20.5626 1.87866 20 1.87866C19.4374 1.87866 18.8978 2.10216 18.5 2.49998L8.937 12.063C8.591 12.409 8.418 12.582 8.295 12.783C8.18507 12.9622 8.10407 13.1576 8.055 13.362C8 13.592 8 13.836 8 14.325V16Z" stroke="#8E8E8E" stroke-width="2" stroke-linecap="round" stroke-linejoin="round"/>
</svg>
