<svg width="24" height="24" viewBox="0 0 24 24" fill="none" xmlns="http://www.w3.org/2000/svg">
<path fill-rule="evenodd" clip-rule="evenodd" d="M6.35833 8.24295C4.85251 9.49988 3.79856 10.9769 3.26537 11.8206C3.23008 11.8767 3.20551 11.9157 3.18479 11.9498C3.17122 11.9722 3.16226 11.9877 3.15626 11.9985C3.15625 11.9996 3.15625 12.0008 3.15626 12.002C3.16216 12.0126 3.17104 12.0279 3.18454 12.0502C3.20499 12.0838 3.22957 12.1228 3.26476 12.1784C3.79721 13.0218 4.85146 14.4999 6.35758 15.757C7.86132 17.0122 9.75579 18 11.9996 18C14.243 18 16.1375 17.0123 17.6415 15.757C19.1474 14.5002 20.2015 13.0235 20.7347 12.1798C20.77 12.1237 20.7948 12.0843 20.8155 12.0502C20.8293 12.0273 20.8384 12.0117 20.8444 12.0009C20.8444 12.0007 20.8444 12.001 20.8444 12.0009C20.8444 12.0004 20.8444 11.9995 20.8444 11.9991C20.8386 11.9886 20.8298 11.9736 20.8166 11.9519C20.7962 11.9185 20.7716 11.8797 20.7363 11.8244L20.7341 11.8208C20.2017 10.9775 19.1476 9.50018 17.6414 8.24297C16.1374 6.98773 14.243 6 11.9996 6C9.75634 6 7.86212 6.98771 6.35833 8.24295ZM5.07671 6.70755C6.80516 5.26479 9.13794 4 11.9996 4C14.8613 4 17.1943 5.26477 18.9229 6.70753C20.6481 8.14743 21.8312 9.81242 22.4241 10.7514C22.4245 10.752 22.4249 10.7526 22.4252 10.7532L21.5796 11.287L22.423 10.7496C22.4234 10.7502 22.4237 10.7508 22.4241 10.7514C22.431 10.7622 22.438 10.7731 22.4451 10.7842C22.5655 10.9722 22.72 11.2136 22.7977 11.5551C22.7974 11.5538 22.7971 11.5524 22.7968 11.551L21.8226 11.777L22.7977 11.5551C22.8599 11.8267 22.8602 12.1752 22.797 12.4478C22.7973 12.4468 22.7975 12.4459 22.7977 12.4449L21.8226 12.223L22.7964 12.4507C22.7966 12.4498 22.7968 12.4488 22.797 12.4478C22.7202 12.7831 22.5683 13.0226 22.4523 13.2056C22.4436 13.2193 22.4351 13.2327 22.4269 13.2458L22.426 13.2472C21.8331 14.1856 20.6494 15.8517 18.923 17.2925C17.1943 18.7352 14.8613 20 11.9996 20C9.13749 20 6.80447 18.7353 5.07596 17.2924C3.34988 15.8517 2.16668 14.1855 1.57411 13.2469C1.57397 13.2467 1.57425 13.2471 1.57411 13.2469C1.56671 13.2352 1.55908 13.2232 1.55135 13.2111C1.43292 13.0249 1.27973 12.784 1.20257 12.4449C1.20017 12.4343 1.19794 12.4237 1.19588 12.4131C1.14304 12.1402 1.14304 11.8598 1.19588 11.5869C1.19794 11.5763 1.20017 11.5657 1.20257 11.5551C1.2792 11.2183 1.43161 10.9779 1.54796 10.7944C1.55666 10.7807 1.56516 10.7673 1.57341 10.7542L1.57427 10.7528C2.16718 9.81449 3.35061 8.14835 5.07671 6.70755Z" fill="#8E8E8E"/>
<path fill-rule="evenodd" clip-rule="evenodd" d="M9.17122 9.17157C9.92136 8.42143 10.9388 8 11.9996 8C13.0605 8 14.0779 8.42143 14.8281 9.17157C15.5782 9.92172 15.9996 10.9391 15.9996 12C15.9996 13.0609 15.5782 14.0783 14.8281 14.8284C14.0779 15.5786 13.0605 16 11.9996 16C10.9388 16 9.92136 15.5786 9.17122 14.8284C8.42107 14.0783 7.99964 13.0609 7.99964 12C7.99964 10.9391 8.42107 9.92172 9.17122 9.17157ZM11.9996 10C11.4692 10 10.9605 10.2107 10.5854 10.5858C10.2104 10.9609 9.99964 11.4696 9.99964 12C9.99964 12.5304 10.2104 13.0391 10.5854 13.4142C10.9605 13.7893 11.4692 14 11.9996 14C12.5301 14 13.0388 13.7893 13.4139 13.4142C13.7889 13.0391 13.9996 12.5304 13.9996 12C13.9996 11.4696 13.7889 10.9609 13.4139 10.5858C13.0388 10.2107 12.5301 10 11.9996 10Z" fill="#8E8E8E"/>
</svg>
