<svg width="11" height="11" viewBox="0 0 11 11" fill="none" xmlns="http://www.w3.org/2000/svg">
<g id="file-02" clip-path="url(#clip0_891_14074)">
<g id="Vector">
<path fill-rule="evenodd" clip-rule="evenodd" d="M4.01441 0.458374H6.9856C7.35454 0.458368 7.65904 0.458364 7.90709 0.47863C8.16472 0.499679 8.40154 0.544854 8.62398 0.658196C8.96895 0.833964 9.24941 1.11443 9.42518 1.45939C9.53852 1.68184 9.5837 1.91866 9.60474 2.17629C9.62501 2.42433 9.62501 2.72883 9.625 3.09777V7.90231C9.62501 8.27125 9.62501 8.57575 9.60474 8.82379C9.5837 9.08142 9.53852 9.31824 9.42518 9.54069C9.24941 9.88565 8.96895 10.1661 8.62398 10.3419C8.40154 10.4552 8.16472 10.5004 7.90709 10.5215C7.65904 10.5417 7.35455 10.5417 6.98561 10.5417H4.01439C3.64545 10.5417 3.34096 10.5417 3.09291 10.5215C2.83529 10.5004 2.59846 10.4552 2.37602 10.3419C2.03105 10.1661 1.75059 9.88565 1.57482 9.54069C1.46148 9.31824 1.4163 9.08142 1.39526 8.82379C1.37499 8.57575 1.37499 8.27125 1.375 7.9023V3.09778C1.37499 2.72883 1.37499 2.42434 1.39526 2.17629C1.4163 1.91866 1.46148 1.68184 1.57482 1.45939C1.75059 1.11443 2.03105 0.833964 2.37602 0.658196C2.59846 0.544854 2.83529 0.499679 3.09291 0.47863C3.34096 0.458364 3.64546 0.458368 4.01441 0.458374ZM3.16756 1.39225C2.96662 1.40867 2.86386 1.43843 2.79218 1.47495C2.61969 1.56284 2.47946 1.70307 2.39158 1.87555C2.35505 1.94723 2.3253 2.04999 2.30888 2.25093C2.29202 2.45722 2.29167 2.72411 2.29167 3.11671V7.88337C2.29167 8.27597 2.29202 8.54286 2.30888 8.74915C2.3253 8.95009 2.35505 9.05285 2.39158 9.12453C2.47946 9.29701 2.61969 9.43725 2.79218 9.52513C2.86386 9.56165 2.96662 9.59141 3.16756 9.60783C3.37385 9.62468 3.64073 9.62504 4.03333 9.62504H6.96667C7.35927 9.62504 7.62615 9.62468 7.83244 9.60783C8.03338 9.59141 8.13614 9.56165 8.20783 9.52513C8.38031 9.43725 8.52054 9.29701 8.60842 9.12453C8.64495 9.05285 8.67471 8.95009 8.69112 8.74915C8.70798 8.54286 8.70833 8.27597 8.70833 7.88337V3.11671C8.70833 2.72411 8.70798 2.45722 8.69112 2.25093C8.67471 2.04999 8.64495 1.94723 8.60842 1.87555C8.52054 1.70307 8.38031 1.56284 8.20783 1.47495C8.13614 1.43843 8.03338 1.40867 7.83244 1.39225C7.62615 1.3754 7.35927 1.37504 6.96667 1.37504H4.03333C3.64073 1.37504 3.37385 1.3754 3.16756 1.39225Z" fill="white"/>
<path fill-rule="evenodd" clip-rule="evenodd" d="M3.20833 5.04171C3.20833 4.78858 3.41354 4.58337 3.66667 4.58337H6.41667C6.6698 4.58337 6.875 4.78858 6.875 5.04171C6.875 5.29484 6.6698 5.50004 6.41667 5.50004H3.66667C3.41354 5.50004 3.20833 5.29484 3.20833 5.04171Z" fill="white"/>
<path fill-rule="evenodd" clip-rule="evenodd" d="M3.20833 6.87504C3.20833 6.62191 3.41354 6.41671 3.66667 6.41671H4.58333C4.83646 6.41671 5.04167 6.62191 5.04167 6.87504C5.04167 7.12817 4.83646 7.33337 4.58333 7.33337H3.66667C3.41354 7.33337 3.20833 7.12817 3.20833 6.87504Z" fill="white"/>
<path fill-rule="evenodd" clip-rule="evenodd" d="M3.20833 3.20837C3.20833 2.95524 3.41354 2.75004 3.66667 2.75004H7.33333C7.58646 2.75004 7.79167 2.95524 7.79167 3.20837C7.79167 3.4615 7.58646 3.66671 7.33333 3.66671H3.66667C3.41354 3.66671 3.20833 3.4615 3.20833 3.20837Z" fill="white"/>
</g>
</g>
<defs>
<clipPath id="clip0_891_14074">
<rect width="11" height="11" fill="white"/>
</clipPath>
</defs>
</svg>
