<svg width="114" height="114" viewBox="0 0 114 114" fill="none" xmlns="http://www.w3.org/2000/svg">
<g id="Group 48343">
<circle id="Ellipse 264" cx="57" cy="57" r="57" fill="#E8FFED"/>
<path id="Vector" d="M57 29C41.5321 29 29 41.5321 29 57C29 72.4679 41.5321 85 57 85C72.4679 85 85 72.4679 85 57C85 41.5321 72.4679 29 57 29ZM76.2945 47.7685L51.8412 72.2727C51.68 72.4339 51.4679 72.5188 51.2388 72.5188C51.0097 72.5188 50.7976 72.4339 50.6364 72.2727L37.7055 59.2994C37.5527 59.1382 37.4764 58.9176 37.4848 58.697C37.4848 58.4679 37.5782 58.2558 37.7394 58.0945L42.5333 53.2921C42.8642 52.9612 43.3988 52.9612 43.7297 53.2921L51.2642 60.8352L70.2958 41.7697C70.6267 41.4388 71.1612 41.4388 71.4921 41.7697L76.2861 46.5721C76.617 46.903 76.617 47.4376 76.2861 47.7685H76.2945Z" fill="#28924F"/>
</g>
</svg>
