<svg width="53" height="59" viewBox="0 0 53 59" fill="none" xmlns="http://www.w3.org/2000/svg">
<path id="Vector" d="M18.6678 0C17.7844 0 17.1367 0.708 17.1367 1.593V11.977H4.65222C4.65222 11.977 4.53444 11.977 4.47556 11.977C3.82778 12.036 3.29778 12.508 3.12111 13.157L0 25.37C0 25.37 0 25.665 0 25.842V31.978C0 32.863 0.706667 33.512 1.53111 33.512H2.76778V57.407C2.76778 58.292 3.47444 59 4.29889 59H48.5833C49.4667 59 50.1144 58.292 50.1144 57.407V33.571H51.3511C52.2344 33.571 52.9411 32.863 52.9411 32.037V25.842C52.9411 25.842 52.9411 25.488 52.8233 25.311L49.7611 13.216C49.5844 12.508 48.9956 12.036 48.23 12.036H35.8044V1.593C35.9222 0.708 35.2156 0 34.3322 0H18.6678ZM20.2578 3.127H32.8011V18.054H20.1989V3.127H20.2578ZM5.88889 15.045H17.0778V18.054H15.7233C14.84 18.054 14.1333 18.703 14.1333 19.588C14.1333 20.473 14.7811 21.181 15.6644 21.181C15.6644 21.181 15.6644 21.181 15.7233 21.181H37.1589C38.0422 21.181 38.7489 20.532 38.7489 19.647C38.7489 18.762 38.1011 18.054 37.2178 18.054C37.2178 18.054 37.2178 18.054 37.1589 18.054H35.8044V15.045H46.9933L49.29 24.19H3.53333L5.83 15.045H5.88889ZM3.12111 27.317H49.8789V30.444H3.12111V27.317ZM5.88889 33.512H47.0522V55.814H5.88889V33.512Z" fill="white"/>
</svg>
