<svg width="21" height="21" viewBox="0 0 21 21" fill="none" xmlns="http://www.w3.org/2000/svg">
<g id="Logout">
<path id="Logout_2" fill-rule="evenodd" clip-rule="evenodd" d="M12.8849 10.8675C13.3224 10.8675 13.6684 10.5245 13.6684 10.0906C13.6684 9.66677 13.3224 9.3136 12.8849 9.3136L6.78027 9.3136L6.78027 4.4903C6.78028 2.01811 8.80498 -8.67631e-06 11.3079 -8.4575e-06L16.2628 -8.02432e-06C18.7556 -7.8064e-06 20.7803 2.00802 20.7803 4.48021L20.7803 15.6908C20.7803 18.1731 18.7454 20.1812 16.2527 20.1812L11.2875 20.1812C8.80498 20.1812 6.78027 18.1731 6.78027 15.7009L6.78027 10.8675L12.8849 10.8675ZM3.15007 13.5817L0.230073 10.6454C0.0800732 10.494 7.33429e-05 10.3023 7.33614e-05 10.0904C7.33791e-05 9.88856 0.0800733 9.68675 0.230073 9.54548L3.15007 6.60912C3.30007 6.45776 3.50007 6.37704 3.69007 6.37704C3.89007 6.37704 4.09007 6.45776 4.24007 6.60912C4.54007 6.91184 4.54007 7.40628 4.24007 7.70899L2.64007 9.31339L6.78007 9.3134L6.78007 10.8673L2.64007 10.8673L4.24007 12.4717C4.54007 12.7745 4.54007 13.2689 4.24007 13.5716C3.94007 13.8844 3.45007 13.8844 3.15007 13.5817Z" fill="white"/>
</g>
</svg>
