<svg width="10" height="14" viewBox="0 0 10 14" fill="none" xmlns="http://www.w3.org/2000/svg">
<path id="Vector" d="M9.1504 1.68042C9.1604 0.670424 8.4204 -0.0195764 7.4804 0.000423631C5.5504 0.0304236 3.6104 0.0304236 1.6804 0.000423631C0.740401 -0.0195764 -0.0195988 0.670424 0.000401217 1.68042C0.0304012 3.45042 0.000401217 5.22042 0.000401217 6.98042C0.000401217 8.76042 0.0204012 10.5304 0.000401217 12.3104C-0.0195988 13.3004 0.710401 14.0004 1.6804 13.9904C3.6004 13.9704 5.5304 13.9904 7.4504 13.9904C8.5104 13.9904 9.1404 13.3704 9.1404 12.3004C9.1404 8.76042 9.1304 5.23042 9.1404 1.69042L9.1504 1.68042ZM5.5104 1.12042C5.6804 1.12042 5.8104 1.26042 5.8104 1.42042C5.8104 1.58042 5.6704 1.72042 5.5104 1.72042C5.3504 1.72042 5.2104 1.58042 5.2104 1.42042C5.2104 1.26042 5.3504 1.12042 5.5104 1.12042ZM3.4204 1.12042H4.5704C4.7404 1.12042 4.8704 1.26042 4.8704 1.42042C4.8704 1.58042 4.7304 1.72042 4.5704 1.72042H3.4204C3.2504 1.72042 3.1204 1.58042 3.1204 1.42042C3.1204 1.26042 3.2604 1.12042 3.4204 1.12042ZM8.5404 6.99042C8.5404 8.75042 8.5404 10.5104 8.5404 12.2704C8.5404 13.0204 8.1904 13.3704 7.4504 13.3704C5.5204 13.3704 3.5804 13.3704 1.6504 13.3704C0.960401 13.3704 0.600401 13.0104 0.600401 12.3204C0.600401 8.77042 0.600401 5.21042 0.600401 1.66042C0.600401 1.33042 0.670401 1.04042 0.930401 0.820424C1.2704 0.530424 1.6204 0.650424 1.7204 1.08042C1.7604 1.26042 1.7804 1.44042 1.8204 1.62042C1.9204 2.14042 2.2304 2.42042 2.7404 2.42042C3.9504 2.43042 5.1604 2.43042 6.3704 2.42042C6.8704 2.42042 7.2004 2.10042 7.2804 1.60042C7.3104 1.40042 7.3304 1.20042 7.3904 1.01042C7.5104 0.640424 7.8204 0.540424 8.1404 0.770424C8.4304 0.980424 8.5304 1.28042 8.5304 1.63042C8.5304 3.42042 8.5304 5.20042 8.5304 6.99042H8.5404Z" fill="#28924F"/>
</svg>
