<svg width="9" height="11" viewBox="0 0 9 11" fill="none" xmlns="http://www.w3.org/2000/svg">
<g id="Group 48398">
<path id="Vector" d="M5.40704 10.8051C4.12783 10.3723 3.32991 9.48842 2.88662 8.29365C2.64598 7.6475 2.72197 7.00744 3.14626 6.44054C3.55789 5.88582 4.13416 5.64199 4.83709 5.7822C5.54636 5.9224 5.99598 6.36129 6.17963 7.03183C6.24295 7.25127 6.23029 7.48901 6.24295 7.72065C6.26828 8.04372 6.42027 8.29975 6.71791 8.46433C7.24352 8.75083 7.90845 8.43995 8.01611 7.85475C8.07944 7.5073 8.02878 7.15984 7.95278 6.81848C7.71847 5.75781 7.1422 4.9166 6.1543 4.36798C4.84976 3.64258 3.17793 3.86203 2.10137 4.87393C0.733503 6.16013 0.575186 8.19612 1.73407 9.6652C1.80373 9.75054 1.86072 9.84197 1.83539 9.95779C1.81006 10.0858 1.73407 10.1772 1.60108 10.2077C1.46176 10.2443 1.34778 10.1955 1.25912 10.0858C0.929817 9.68348 0.689174 9.2324 0.524524 8.74474C-0.0960809 6.86724 0.72717 4.81297 2.50666 3.82546C4.11517 2.93547 6.19863 3.25245 7.45883 4.57523C8.30742 5.47131 8.70638 6.53197 8.68104 7.73284C8.66838 8.507 8.02244 9.13486 7.21819 9.18363C6.45193 9.2324 5.74267 8.67159 5.62868 7.92181C5.59702 7.71455 5.60968 7.5012 5.58435 7.29394C5.50836 6.64779 4.80543 6.2028 4.18483 6.41006C3.74787 6.55636 3.52622 6.89162 3.43757 7.31223C3.34891 7.70846 3.45023 8.08639 3.62755 8.44604C3.96318 9.12267 4.47613 9.653 5.14106 10.0431C5.26138 10.1163 5.41337 10.1468 5.55269 10.1833C5.69201 10.2138 5.806 10.3053 5.83133 10.4394C5.85666 10.5796 5.787 10.7015 5.66035 10.7685C5.63501 10.7807 5.60968 10.7929 5.59069 10.799H5.40704V10.8051Z" fill="#28924F"/>
<path id="Vector_2" d="M3.41439 10.805C3.3384 10.7501 3.24974 10.7075 3.18641 10.6404C2.58481 10.0126 2.07819 9.32373 1.75522 8.51909C1.15995 7.05001 1.86921 5.50169 3.16108 4.84944C4.54161 4.14843 6.27044 4.64828 7.05569 5.97716C7.31533 6.42215 7.45465 6.90372 7.46099 7.41576C7.46099 7.62911 7.347 7.76322 7.15068 7.76931C6.95437 7.77541 6.82138 7.6413 6.81505 7.42795C6.79605 6.75132 6.53641 6.17832 6.02346 5.72114C4.90891 4.73362 3.14208 5.0628 2.45182 6.37948C2.09085 7.0683 2.10352 7.76322 2.42015 8.45814C2.73046 9.12867 3.17375 9.70777 3.6867 10.2442C3.82601 10.3844 3.84501 10.5612 3.72469 10.6831C3.68036 10.7319 3.6107 10.7562 3.55371 10.7928H3.41439V10.805Z" fill="#28924F"/>
<path id="Vector_3" d="M8.68234 4.91049C8.54935 4.91049 8.4607 4.83734 8.3847 4.73981C8.04907 4.26434 7.63744 3.86811 7.14983 3.53894C5.17402 2.21616 2.48263 2.56362 0.937446 4.33749C0.817125 4.47769 0.703136 4.63008 0.589147 4.77638C0.475159 4.92268 0.285178 4.95925 0.139525 4.86172C-0.0124595 4.76419 -0.044123 4.57522 0.063533 4.41673C0.912115 3.24025 2.052 2.46609 3.51486 2.21007C5.45266 1.8748 7.09283 2.4478 8.4417 3.81935C8.62535 4.00832 8.77733 4.22167 8.93565 4.42892C9.01797 4.53255 9.01797 4.64837 8.95465 4.75809C8.89765 4.86172 8.79633 4.91658 8.67601 4.91658L8.68234 4.91049Z" fill="#28924F"/>
<path id="Vector_4" d="M4.66771 0.899414C5.95324 0.917701 7.23245 1.39317 8.32168 2.32582C8.41667 2.41116 8.47366 2.5087 8.44833 2.63061C8.404 2.87444 8.12536 2.96588 7.92272 2.80739C7.77073 2.69157 7.61875 2.56356 7.46043 2.44774C6.51052 1.7894 5.44663 1.47242 4.27508 1.52118C3.10986 1.56995 2.0903 1.97836 1.20372 2.70376C1.16572 2.73424 1.13406 2.76472 1.09606 2.7952C0.937744 2.92321 0.74143 2.91711 0.621109 2.783C0.500787 2.6489 0.513453 2.46602 0.665438 2.33801C1.0834 1.97227 1.55202 1.66748 2.05863 1.43584C2.83122 1.08229 3.64814 0.899414 4.66771 0.899414Z" fill="#28924F"/>
<path id="Vector_5" d="M6.6535 10.2016C6.21022 10.1772 5.80492 10.0005 5.45029 9.72616C4.65237 9.10439 4.19642 8.30584 4.15842 7.30614C4.15209 7.09888 4.28507 6.95868 4.47506 6.95868C4.66504 6.95868 4.79169 7.09279 4.80436 7.30004C4.84235 8.15345 5.23498 8.83008 5.95057 9.32384C6.17222 9.47623 6.42553 9.56767 6.70417 9.57986C6.90048 9.58595 7.0398 9.72616 7.03347 9.89684C7.03347 10.0736 6.87515 10.2016 6.6535 10.1955V10.2016Z" fill="#28924F"/>
</g>
</svg>
