<svg width="18" height="21" viewBox="0 0 18 21" fill="none" xmlns="http://www.w3.org/2000/svg">
<path id="Paper" fill-rule="evenodd" clip-rule="evenodd" d="M5.98543 14.5404H11.3907C11.798 14.5404 12.1359 14.1973 12.1359 13.7836C12.1359 13.3699 11.798 13.0369 11.3907 13.0369H5.98543C5.57805 13.0369 5.24023 13.3699 5.24023 13.7836C5.24023 14.1973 5.57805 14.5404 5.98543 14.5404ZM9.34382 7.9917H5.98543C5.57805 7.9917 5.24023 8.33478 5.24023 8.74849C5.24023 9.16221 5.57805 9.4952 5.98543 9.4952H9.34382C9.7512 9.4952 10.089 9.16221 10.089 8.74849C10.089 8.33478 9.7512 7.9917 9.34382 7.9917ZM16.4342 7.10927C16.6678 7.10656 16.9221 7.10361 17.1531 7.10361C17.4015 7.10361 17.6003 7.30542 17.6003 7.55768V15.6705C17.6003 18.173 15.6031 20.2012 13.139 20.2012H5.22986C2.64649 20.2012 0.540039 18.0721 0.540039 15.4485V4.57087C0.540039 2.06841 2.54712 0.0200195 5.02121 0.0200195H10.3271C10.5854 0.0200195 10.7841 0.231922 10.7841 0.484186V3.73335C10.7841 5.57993 12.2845 7.09352 14.1028 7.10361C14.5275 7.10361 14.9019 7.1068 15.2296 7.10959C15.4845 7.11177 15.7111 7.1137 15.9111 7.1137C16.0526 7.1137 16.2359 7.11157 16.4342 7.10927ZM16.7082 5.63651C15.8914 5.63953 14.9286 5.63651 14.2361 5.62944C13.1372 5.62944 12.232 4.71019 12.232 3.59417V0.934295C12.232 0.499391 12.7516 0.283453 13.0487 0.59727C13.5862 1.16478 14.3246 1.94475 15.0598 2.72128C15.7939 3.49667 16.5247 4.26863 17.049 4.8222C17.3391 5.12794 17.1265 5.6355 16.7082 5.63651Z" fill="#4053F9"/>
</svg>
