<svg width="86" height="86" viewBox="0 0 86 86" fill="none" xmlns="http://www.w3.org/2000/svg">
<g id="Group 48205">
<g id="Group 48499">
<circle id="Ellipse 272" cx="43" cy="43" r="42.5" fill="white" stroke="#E8DBB6"/>
<g id="Group 48498">
<path id="Vector" d="M45.4506 45.7783H33.5309C32.8843 45.7783 32.3623 46.3027 32.3623 46.9522C32.3623 47.6018 32.8843 48.1261 33.5309 48.1261H45.4506C46.0973 48.1261 46.6192 47.6018 46.6192 46.9522C46.6192 46.3027 46.0973 45.7783 45.4506 45.7783Z" fill="#28924F"/>
<path id="Vector_2" d="M33.5309 44.174H38.3222C38.9688 44.174 39.4908 43.6497 39.4908 43.0001C39.4908 42.3505 38.9688 41.8262 38.3222 41.8262H33.5309C32.8843 41.8262 32.3623 42.3505 32.3623 43.0001C32.3623 43.6497 32.8843 44.174 33.5309 44.174Z" fill="#28924F"/>
<path id="Vector_3" d="M45.4506 49.6914H33.5309C32.8843 49.6914 32.3623 50.2158 32.3623 50.8653C32.3623 51.5149 32.8843 52.0392 33.5309 52.0392H45.4506C46.0973 52.0392 46.6192 51.5149 46.6192 50.8653C46.6192 50.2158 46.0973 49.6914 45.4506 49.6914Z" fill="#28924F"/>
<path id="Vector_4" d="M42.607 53.6436H33.5309C32.8843 53.6436 32.3623 54.1679 32.3623 54.8175C32.3623 55.467 32.8843 55.9914 33.5309 55.9914H42.607C43.2537 55.9914 43.7756 55.467 43.7756 54.8175C43.7756 54.1679 43.2537 53.6436 42.607 53.6436Z" fill="#28924F"/>
<path id="Vector_5" d="M51.8395 25.313C51.6291 25.1135 51.3487 25.0039 51.0604 25H39.7639C37.3956 25 35.479 26.9252 35.479 29.3043V32.1609H32.2849C29.9165 32.1609 28 34.0861 28 36.4652V56.6957C28 59.0748 29.9165 61 32.2849 61H46.6976C49.066 61 50.9825 59.0748 50.9825 56.6957V53.8391H54.1767C56.545 53.8391 58.4615 51.9139 58.4615 49.5348V32.0043C58.4576 31.6757 58.3174 31.3626 58.072 31.1435L51.8395 25.313ZM52.3069 28.9522L54.2935 30.8304H52.3069V28.9522ZM46.6976 58.6522H32.2849C31.2098 58.6522 30.3372 57.7757 30.3372 56.6957V36.4652C30.3372 35.3852 31.2098 34.5087 32.2849 34.5087H42.5296V39.2043C42.5296 39.8539 43.0516 40.3783 43.6982 40.3783H48.6453V56.6957C48.6453 57.7757 47.7727 58.6522 46.6976 58.6522ZM44.8668 36.113L46.9313 38.0304H44.8668V36.113ZM54.2156 51.4913H50.9825V39.1652C50.9903 38.8404 50.8617 38.5313 50.6319 38.3043L44.3994 32.4739C44.189 32.2743 43.9086 32.1648 43.6203 32.1609H37.8163V29.3043C37.8163 28.2243 38.6888 27.3478 39.7639 27.3478H49.9697V31.9652C49.9697 32.6148 50.4917 33.1391 51.1383 33.1391H56.1243V49.5348C56.1243 50.6148 55.2518 51.4913 54.1767 51.4913H54.2156Z" fill="#28924F"/>
</g>
</g>
</g>
</svg>
