<svg width="20" height="20" viewBox="0 0 20 20" fill="none" xmlns="http://www.w3.org/2000/svg">
<path d="M13.2188 12.3375C14.4687 10.8602 15.0992 8.95695 14.9786 7.02558C14.8579 5.09421 13.9954 3.28422 12.5714 1.97395C11.1473 0.663679 9.27193 -0.0454512 7.33721 -0.00521254C5.4025 0.0350261 3.55821 0.821519 2.18986 2.18986C0.821519 3.55821 0.0350261 5.4025 -0.00521254 7.33721C-0.0454512 9.27193 0.663679 11.1473 1.97395 12.5714C3.28422 13.9954 5.09421 14.8579 7.02558 14.9786C8.95695 15.0992 10.8602 14.4687 12.3375 13.2188L18.9313 19.8188L19.8125 18.9375L13.2188 12.3375ZM7.50001 13.75C6.26387 13.75 5.0555 13.3834 4.02769 12.6967C2.99988 12.0099 2.19881 11.0338 1.72576 9.89178C1.25271 8.74974 1.12894 7.49307 1.3701 6.28069C1.61126 5.06831 2.20651 3.95467 3.08059 3.08059C3.95467 2.20651 5.06831 1.61126 6.28069 1.3701C7.49307 1.12894 8.74974 1.25271 9.89178 1.72576C11.0338 2.19881 12.0099 2.99988 12.6967 4.02769C13.3834 5.0555 13.75 6.26387 13.75 7.50001C13.75 9.15761 13.0915 10.7473 11.9194 11.9194C10.7473 13.0915 9.15761 13.75 7.50001 13.75Z" fill="black"/>
<path d="M3.125 7.50001H4.375C4.375 6.67121 4.70424 5.87635 5.29029 5.2903C5.87634 4.70425 6.6712 4.37501 7.5 4.37501V3.12501C6.33968 3.12501 5.22688 3.58594 4.40641 4.40642C3.58594 5.22689 3.125 6.33969 3.125 7.50001Z" fill="black"/>
</svg>
