<svg width="85" height="89" viewBox="0 0 85 89" fill="none" xmlns="http://www.w3.org/2000/svg">
<path d="M62.5472 89H22.4528C16.4555 89 10.8171 86.5546 6.57629 82.1142C2.3355 77.6739 0 71.7701 0 65.4906V23.5094C0 17.2298 2.3355 11.3261 6.57629 6.88576C10.8171 2.4454 16.4555 0 22.4528 0H62.5472C68.5445 0 74.1829 2.4454 78.4237 6.88576C82.6645 11.3261 85 17.2298 85 23.5094V65.4906C85 71.7701 82.6645 77.6739 78.4237 82.1142C74.1829 86.5546 68.5445 89 62.5472 89Z" fill="#50B18E"/>
<path fill-rule="evenodd" clip-rule="evenodd" d="M57.5536 47.8967C58.1944 48.2451 58.6888 48.7951 59.0367 49.3451C59.7141 50.4817 59.6592 51.8751 59 53.1034L57.7183 55.3034C57.0409 56.4767 55.7775 57.2101 54.4775 57.2101C53.8366 57.2101 53.1225 57.0267 52.5366 56.6601C52.0605 56.3484 51.5112 56.2384 50.9253 56.2384C49.1126 56.2384 47.5929 57.7601 47.5379 59.5751C47.5379 61.6834 45.8534 63.3334 43.7478 63.3334H41.2576C39.1336 63.3334 37.4491 61.6834 37.4491 59.5751C37.4125 57.7601 35.8927 56.2384 34.08 56.2384C33.4758 56.2384 32.9265 56.3484 32.4688 56.6601C31.8828 57.0267 31.1504 57.2101 30.5279 57.2101C29.2096 57.2101 27.9462 56.4767 27.2687 55.3034L26.0053 53.1034C25.3278 51.9117 25.2912 50.4817 25.9687 49.3451C26.2616 48.7951 26.8109 48.2451 27.4335 47.8967C27.9462 47.6401 28.2757 47.2184 28.587 46.7234C29.5025 45.1467 28.9532 43.0751 27.3969 42.1401C25.5842 41.0951 24.9982 38.7667 26.0419 36.9517L27.2687 34.7884C28.3307 32.9734 30.6011 32.3317 32.4321 33.3951C34.0251 34.2751 36.0941 33.6884 37.028 32.1301C37.3209 31.6167 37.4857 31.0667 37.4491 30.5167C37.4125 29.8017 37.6139 29.1234 37.9618 28.5734C38.6392 27.4367 39.866 26.7034 41.2027 26.6667H43.7844C45.1393 26.6667 46.3661 27.4367 47.0436 28.5734C47.3732 29.1234 47.5929 29.8017 47.5379 30.5167C47.5013 31.0667 47.6661 31.6167 47.9591 32.1301C48.8929 33.6884 50.9619 34.2751 52.5732 33.3951C54.3859 32.3317 56.6747 32.9734 57.7183 34.7884L58.9451 36.9517C60.0071 38.7667 59.4212 41.0951 57.5902 42.1401C56.0338 43.0751 55.4845 45.1467 56.4183 46.7234C56.7113 47.2184 57.0409 47.6401 57.5536 47.8967ZM37.3209 45.0184C37.3209 47.8967 39.6463 50.1884 42.521 50.1884C45.3957 50.1884 47.6661 47.8967 47.6661 45.0184C47.6661 42.1401 45.3957 39.8301 42.521 39.8301C39.6463 39.8301 37.3209 42.1401 37.3209 45.0184Z" fill="white"/>
</svg>
