<svg width="89" height="89" viewBox="0 0 89 89" fill="none" xmlns="http://www.w3.org/2000/svg">
<rect width="89" height="89" rx="44.5" fill="#099F61" fill-opacity="0.12"/>
<path fill-rule="evenodd" clip-rule="evenodd" d="M28.875 43C28.875 34.1287 36.1287 26.875 45 26.875C53.8713 26.875 61.125 34.1287 61.125 43C61.125 51.8713 53.8713 59.125 45 59.125C36.1287 59.125 28.875 51.8713 28.875 43ZM45 29.125C37.3713 29.125 31.125 35.3713 31.125 43C31.125 50.6287 37.3713 56.875 45 56.875C52.6287 56.875 58.875 50.6287 58.875 43C58.875 35.3713 52.6287 29.125 45 29.125Z" fill="#0AB56E"/>
<path fill-rule="evenodd" clip-rule="evenodd" d="M52.1712 37.9602C52.6101 38.3999 52.6095 39.1122 52.1698 39.5512L43.6648 48.0412C43.2253 48.4799 42.5136 48.4796 42.0745 48.0405L37.8295 43.7955C37.3902 43.3562 37.3902 42.6438 37.8295 42.2045C38.2688 41.7652 38.9812 41.7652 39.4205 42.2045L42.8707 45.6547L50.5802 37.9588C51.0199 37.5199 51.7322 37.5205 52.1712 37.9602Z" fill="#0AB56E"/>
</svg>
