<svg width="24" height="24" viewBox="0 0 24 24" fill="none" xmlns="http://www.w3.org/2000/svg">
<path d="M16 12L12 8M12 8L8 12M12 8V17.2C12 18.59 12 19.286 12.55 20.065C12.916 20.582 13.97 21.22 14.597 21.305C15.542 21.433 15.901 21.246 16.619 20.872C18.2418 20.027 19.6016 18.753 20.5504 17.1886C21.4992 15.6243 22.0006 13.8296 22 12C22 6.477 17.523 2 12 2C6.477 2 2 6.477 2 12C1.99929 13.7557 2.46103 15.4807 3.33877 17.0013C4.21651 18.5219 5.47928 19.7845 7 20.662" stroke="#111111" stroke-width="2" stroke-linecap="round" stroke-linejoin="round"/>
</svg>
