<svg width="12" height="14" viewBox="0 0 12 14" fill="none" xmlns="http://www.w3.org/2000/svg">
<path id="Vector" d="M8.19801 0C8.444 0.0412776 8.68998 0.0756757 8.93596 0.137592C10.598 0.52973 11.8013 1.91941 11.9742 3.68059C12.1138 5.09091 11.695 6.3086 10.731 7.31302C8.86948 9.25995 6.99469 11.1862 5.1199 13.1194C4.24233 14.0275 2.8994 14.2545 1.76256 13.7042C0.851752 13.2639 0.253414 12.5415 0.0606163 11.5165C-0.13883 10.457 0.140395 9.52826 0.871697 8.76462C2.74649 6.81769 4.62128 4.87076 6.50272 2.93759C7.51325 1.89877 9.16865 2.30467 9.59414 3.69435C9.80023 4.37543 9.67391 5.00147 9.21519 5.54496C9.00909 5.79263 8.77641 6.01278 8.55037 6.24668C7.79247 7.03096 6.45618 8.42064 5.74483 9.17052C5.4789 9.4457 5.04677 9.4457 4.78084 9.17052H4.77419C4.51491 8.88845 4.51491 8.44816 4.77419 8.17297C5.57862 7.34054 7.20743 5.65504 8.11823 4.70565C8.23125 4.5887 8.31768 4.46486 8.32433 4.29287C8.32433 4.07961 8.2379 3.9145 8.05175 3.81818C7.85895 3.71499 7.66616 3.74939 7.4933 3.89386C7.47336 3.90762 7.46006 3.92826 7.44012 3.94201C5.57862 5.8683 3.71048 7.80147 1.84898 9.72776C1.20411 10.3951 1.17751 11.3651 1.77585 12.0324C2.36089 12.686 3.50438 12.8236 4.1958 12.0943C6.0307 10.1681 7.88555 8.26241 9.74039 6.34988C10.3321 5.74447 10.6445 5.00835 10.6379 4.1484C10.6379 2.80688 9.82017 1.76118 8.55037 1.486C7.4933 1.25897 6.55591 1.50663 5.77807 2.31843C4.87391 3.26093 3.26505 4.93268 2.46726 5.76511C2.20134 6.0403 1.77585 6.0403 1.50992 5.76511H1.50328C1.23735 5.48305 1.23735 5.04275 1.50328 4.76757C2.30106 3.94201 3.91657 2.27027 4.82073 1.32776C5.56533 0.557248 6.45618 0.123833 7.49995 0.0206388C7.53319 0.0206388 7.55979 0.00687961 7.59303 0C7.79247 0 7.99857 0 8.19801 0Z" fill="#C1C1C1"/>
</svg>
