<svg width="85" height="89" viewBox="0 0 85 89" fill="none" xmlns="http://www.w3.org/2000/svg">
<g id="Group 48466">
<path id="Vector" d="M62.5472 89H22.4528C16.4555 89 10.8171 86.5546 6.57629 82.1142C2.3355 77.6739 0 71.7701 0 65.4906V23.5094C0 17.2298 2.3355 11.3261 6.57629 6.88576C10.8171 2.4454 16.4555 0 22.4528 0H62.5472C68.5445 0 74.1829 2.4454 78.4237 6.88576C82.6645 11.3261 85 17.2298 85 23.5094V65.4906C85 71.7701 82.6645 77.6739 78.4237 82.1142C74.1829 86.5546 68.5445 89 62.5472 89Z" fill="#50B18E"/>
<path id="Profile" d="M29 56.3502C29 51.86 34.9881 50.7416 42 50.7416C49.0509 50.7416 55 51.8963 55 56.3914C55 60.8865 49.0103 62 42 62C34.9524 62 29 60.837 29 56.3502ZM33.3972 37.7362C33.3966 36.0089 33.9006 34.3201 34.8455 32.8836C35.7904 31.447 37.1337 30.3272 38.7056 29.6657C40.2775 29.0042 42.0073 28.8308 43.6763 29.1674C45.3453 29.504 46.8785 30.3355 48.0819 31.5566C49.2854 32.7778 50.105 34.3339 50.4372 36.028C50.7694 37.7221 50.5992 39.4782 49.9482 41.0741C49.2972 42.67 48.1946 44.0341 46.7798 44.9938C45.365 45.9536 43.7016 46.4658 42 46.4658C40.8693 46.4702 39.749 46.2474 38.7035 45.8103C37.6581 45.3732 36.7082 44.7304 35.9085 43.9189C35.1089 43.1075 34.4753 42.1434 34.0443 41.0823C33.6133 40.0212 33.3934 38.884 33.3972 37.7362Z" fill="white"/>
</g>
</svg>
