<svg width="22" height="16" viewBox="0 0 22 16" fill="none" xmlns="http://www.w3.org/2000/svg">
    <path fill-rule="evenodd" clip-rule="evenodd"
        d="M5.35869 4.24295C3.85287 5.49988 2.79893 6.97687 2.26573 7.82062C2.23045 7.87666 2.20587 7.91569 2.18515 7.94985C2.17159 7.97221 2.16262 7.98769 2.15662 7.99847C2.15661 7.99964 2.15661 8.0008 2.15663 8.00196C2.16253 8.01259 2.17141 8.02793 2.1849 8.05016C2.20535 8.08383 2.22994 8.1228 2.26512 8.17842C2.79758 9.02182 3.85183 10.4999 5.35794 11.757C6.86168 13.0122 8.75616 14 11 14C13.2433 14 15.1378 13.0123 16.6419 11.757C18.1477 10.5002 19.2018 9.02349 19.735 8.17976C19.7703 8.12371 19.7951 8.08431 19.8159 8.05015C19.8297 8.02733 19.8388 8.01168 19.8448 8.00087C19.8448 8.00071 19.8448 8.00104 19.8448 8.00087C19.8448 8.00043 19.8448 7.99949 19.8448 7.99905C19.8389 7.98863 19.8302 7.97359 19.8169 7.95188C19.7966 7.91854 19.7719 7.87971 19.7367 7.82438L19.7344 7.82083C19.202 6.97751 18.148 5.50018 16.6417 4.24297C15.1378 2.98773 13.2433 2 11 2C8.75671 2 6.86249 2.98771 5.35869 4.24295ZM4.07707 2.70755C5.80553 1.26479 8.13831 0 11 0C13.8617 0 16.1947 1.26477 17.9233 2.70753C19.6484 4.14743 20.8315 5.81242 21.4245 6.75141C21.4249 6.752 21.4252 6.75258 21.4256 6.75317L20.58 7.287L21.4233 6.74962C21.4237 6.75022 21.4241 6.75081 21.4245 6.75141C21.4314 6.76218 21.4384 6.77312 21.4455 6.78424C21.5658 6.97221 21.7204 7.2136 21.7981 7.55513C21.7978 7.55375 21.7975 7.55238 21.7971 7.551L20.823 7.777L21.7981 7.55513C21.8603 7.82666 21.8606 8.17522 21.7974 8.4478C21.7976 8.44683 21.7979 8.44585 21.7981 8.44487L20.823 8.223L21.7967 8.45073C21.797 8.44975 21.7972 8.44878 21.7974 8.4478C21.7206 8.78307 21.5687 9.0226 21.4527 9.20558C21.444 9.2193 21.4355 9.23271 21.4272 9.24581L21.4264 9.24717C20.8334 10.1856 19.6497 11.8517 17.9234 13.2925C16.1947 14.7352 13.8617 16 11 16C8.13786 16 5.80483 14.7353 4.07632 13.2924C2.35024 11.8517 1.16704 10.1855 0.574475 9.24692C0.574336 9.2467 0.574615 9.24714 0.574475 9.24692C0.567076 9.23523 0.559442 9.22322 0.551716 9.21108C0.433288 9.02487 0.2801 8.784 0.202933 8.44487C0.200532 8.43432 0.198303 8.42373 0.196246 8.41311C0.143406 8.14024 0.143406 7.85976 0.196246 7.58689C0.198303 7.57627 0.200532 7.56568 0.202933 7.55513C0.279571 7.21832 0.431976 6.97794 0.548326 6.79442C0.557027 6.78069 0.565526 6.76729 0.573776 6.75419L0.574633 6.75283C1.16755 5.81449 2.35097 4.14835 4.07707 2.70755Z"
        fill="#8E8E8E" />
    <path fill-rule="evenodd" clip-rule="evenodd"
        d="M8.17158 5.17157C8.92173 4.42143 9.93914 4 11 4C12.0609 4 13.0783 4.42143 13.8284 5.17157C14.5786 5.92172 15 6.93913 15 8C15 9.06087 14.5786 10.0783 13.8284 10.8284C13.0783 11.5786 12.0609 12 11 12C9.93914 12 8.92173 11.5786 8.17158 10.8284C7.42144 10.0783 7.00001 9.06087 7.00001 8C7.00001 6.93913 7.42144 5.92172 8.17158 5.17157ZM11 6C10.4696 6 9.96087 6.21071 9.58579 6.58579C9.21072 6.96086 9.00001 7.46957 9.00001 8C9.00001 8.53043 9.21072 9.03914 9.58579 9.41421C9.96087 9.78929 10.4696 10 11 10C11.5304 10 12.0392 9.78929 12.4142 9.41421C12.7893 9.03914 13 8.53043 13 8C13 7.46957 12.7893 6.96086 12.4142 6.58579C12.0392 6.21071 11.5304 6 11 6Z"
        fill="#8E8E8E" />
</svg>