<svg width="85" height="82" viewBox="0 0 85 82" fill="none" xmlns="http://www.w3.org/2000/svg">
<rect width="85" height="81.1002" rx="40.5501" fill="#FBEAEC"/>
<path fill-rule="evenodd" clip-rule="evenodd" d="M46.7563 22.304L64.6764 53.6L64.7028 53.6527C65.1417 54.5611 65.3124 55.4666 65.2721 56.318C65.2266 57.2784 64.914 58.1619 64.4148 58.8999C63.9154 59.6384 63.2271 60.2345 62.431 60.6192C61.7383 60.9538 60.9636 61.1279 60.1594 61.0965V61.0982H24.7203L24.6906 61.0949C23.8846 61.0661 23.1342 60.8661 22.4739 60.5315C21.6203 60.099 20.9152 59.442 20.4318 58.6384C19.9494 57.8368 19.6899 56.8907 19.726 55.878C19.7538 55.0986 19.9562 54.2848 20.3667 53.4746L20.3865 53.435L38.267 22.2082L38.3593 22.0797C38.7458 21.6284 39.1652 21.253 39.6049 20.9514C40.6082 20.263 41.7175 19.9574 42.7927 20.0047C43.8776 20.0525 44.9193 20.4591 45.7771 21.1939C46.1259 21.4928 46.4436 21.8449 46.7201 22.248L46.7563 22.304Z" fill="#FF0000"/>
<path fill-rule="evenodd" clip-rule="evenodd" d="M44.5939 23.6213C44.4706 23.4312 44.3018 23.2631 44.1305 23.1163C43.7194 22.7642 43.2225 22.5573 42.6815 22.5335C42.0887 22.5074 41.5224 22.7055 41.037 23.0386C40.852 23.1655 40.548 23.3712 40.4155 23.5559L40.399 23.5788L22.6193 54.6296C22.414 55.0463 22.2723 55.5016 22.2556 55.9681C22.2385 56.4483 22.3524 56.9207 22.6007 57.3332C22.8437 57.7372 23.1976 58.0605 23.618 58.2735C23.9578 58.4457 24.466 58.5205 24.863 58.5668L60.2583 58.5671C60.63 58.5816 60.9955 58.5015 61.33 58.3399C61.7275 58.1478 62.0711 57.8472 62.3183 57.4817C62.5769 57.0994 62.722 56.6591 62.7438 56.1981C62.7672 55.7055 62.6631 55.2367 62.4444 54.7956L44.5939 23.6213Z" fill="#FBEAEC"/>
<path d="M42.5001 48.2275C42.9145 48.2275 43.3051 48.3028 43.6708 48.4543C44.035 48.605 44.3641 48.8278 44.6571 49.1234C44.9537 49.42 45.1777 49.7501 45.3283 50.1127C45.4803 50.4792 45.5568 50.8716 45.5568 51.2891C45.5568 51.7045 45.4804 52.0942 45.3285 52.4581C45.1776 52.8195 44.9535 53.1485 44.6571 53.4449C44.3641 53.7405 44.035 53.9633 43.6709 54.1141C43.3051 54.2655 42.9146 54.3408 42.5001 54.3408C42.0867 54.3408 41.6969 54.2658 41.3306 54.1148C40.9664 53.9648 40.6364 53.7426 40.3408 53.4476L40.3382 53.4449C40.0436 53.1477 39.8205 52.8183 39.6706 52.4568C39.5197 52.0928 39.4435 51.7035 39.4435 51.2891C39.4435 50.8784 39.519 50.4885 39.6699 50.1218C39.8187 49.7603 40.0389 49.4308 40.3305 49.136C40.6251 48.8357 40.9546 48.6092 41.3198 48.4566C41.6854 48.3039 42.0786 48.2275 42.5001 48.2275ZM41.5567 47.3774L41.5186 46.738C41.4854 46.1789 41.4162 45.5678 41.3112 44.9034C41.2041 44.2262 41.0588 43.4862 40.8762 42.6822L40.13 39.3979C39.9063 38.404 39.7366 37.5435 39.6216 36.815C39.503 36.0637 39.4434 35.4616 39.4434 35.0076C39.4434 34.5493 39.5114 34.1267 39.6467 33.7398C39.786 33.3415 39.9965 32.989 40.2773 32.6826L40.28 32.68C40.5676 32.3695 40.8998 32.138 41.2747 31.984C41.6486 31.8304 42.0551 31.7545 42.4927 31.7545C42.9254 31.7545 43.3253 31.8313 43.694 31.9858C44.0665 32.1419 44.3982 32.3738 44.6905 32.6822C44.9798 32.9852 45.1968 33.3319 45.342 33.7214C45.4854 34.1057 45.5567 34.521 45.5567 34.9664C45.5567 35.3792 45.4934 35.9633 45.3675 36.7194C45.2478 37.438 45.0671 38.3307 44.8261 39.3979V39.4006L44.0702 42.6849C43.9403 43.2513 43.8279 43.8703 43.7327 44.5427C43.638 45.2131 43.5592 45.949 43.496 46.7513L43.4467 47.3774H41.5567Z" fill="#FF0101"/>
</svg>
