<svg width="18" height="18" viewBox="0 0 18 18" fill="none" xmlns="http://www.w3.org/2000/svg">
<path d="M17.7846 6.87183L9.349 0.12337C9.24926 0.0435117 9.12529 0 8.99752 0C8.86974 0 8.74578 0.0435117 8.64604 0.12337L0.210463 6.87183C0.119832 6.94453 0.0539471 7.04353 0.021864 7.1552C-0.010219 7.26687 -0.00692472 7.38574 0.031294 7.49547C0.0695127 7.60519 0.140779 7.70039 0.235298 7.76796C0.329816 7.83554 0.442945 7.87218 0.559133 7.87285H1.68388V17.4332C1.68388 17.5823 1.74313 17.7254 1.84859 17.8308C1.95406 17.9363 2.0971 17.9955 2.24625 17.9955H7.30759C7.45674 17.9955 7.59978 17.9363 7.70525 17.8308C7.81071 17.7254 7.86996 17.5823 7.86996 17.4332V12.3718H10.1194V17.4332C10.1194 17.5823 10.1787 17.7254 10.2842 17.8308C10.3896 17.9363 10.5327 17.9955 10.6818 17.9955H15.7432C15.8923 17.9955 16.0354 17.9363 16.1408 17.8308C16.2463 17.7254 16.3055 17.5823 16.3055 17.4332V7.87285H17.4303C17.5469 7.87334 17.6609 7.83754 17.7563 7.7704C17.8517 7.70326 17.9239 7.6081 17.9628 7.49812C18.0017 7.38813 18.0055 7.26877 17.9736 7.15655C17.9416 7.04434 17.8756 6.94484 17.7846 6.87183ZM13.4937 6.74811V7.87285H15.1808V16.8708H11.2442V11.8094C11.2442 11.6603 11.1849 11.5173 11.0795 11.4118C10.974 11.3063 10.831 11.2471 10.6818 11.2471H7.30759C7.15844 11.2471 7.0154 11.3063 6.90993 11.4118C6.80447 11.5173 6.74522 11.6603 6.74522 11.8094V16.8708H2.80862V7.87285H4.49573V6.74811H2.16189L8.99471 1.28186L15.8275 6.74811H13.4937Z" fill="white"/>
<path d="M10.6817 6.18573H7.30749C6.9969 6.18573 6.74512 6.43751 6.74512 6.7481V7.31047C6.74512 7.62106 6.9969 7.87284 7.30749 7.87284H10.6817C10.9923 7.87284 11.2441 7.62106 11.2441 7.31047V6.7481C11.2441 6.43751 10.9923 6.18573 10.6817 6.18573Z" fill="white"/>
</svg>
