<svg width="24" height="24" viewBox="0 0 24 24" fill="none" xmlns="http://www.w3.org/2000/svg">
<path fill-rule="evenodd" clip-rule="evenodd" d="M5.00008 6C5.00008 5.73478 5.10543 5.48043 5.29297 5.29289C5.48051 5.10536 5.73486 5 6.00008 5H18.0001C18.2653 5 18.5196 5.10536 18.7072 5.29289C18.8947 5.48043 19.0001 5.73478 19.0001 6C19.0001 6.26522 18.8947 6.51957 18.7072 6.70711C18.5196 6.89464 18.2653 7 18.0001 7H6.00008C5.73486 7 5.48051 6.89464 5.29297 6.70711C5.10543 6.51957 5.00008 6.26522 5.00008 6ZM5.00008 18C5.00008 17.7348 5.10543 17.4804 5.29297 17.2929C5.48051 17.1054 5.73486 17 6.00008 17H18.0001C18.2653 17 18.5196 17.1054 18.7072 17.2929C18.8947 17.4804 19.0001 17.7348 19.0001 18C19.0001 18.2652 18.8947 18.5196 18.7072 18.7071C18.5196 18.8946 18.2653 19 18.0001 19H6.00008C5.73486 19 5.48051 18.8946 5.29297 18.7071C5.10543 18.5196 5.00008 18.2652 5.00008 18ZM8.85008 8.24C8.99535 8.11574 9.17319 8.03573 9.36254 8.00944C9.55189 7.98315 9.74481 8.01168 9.91844 8.09165C10.0921 8.17163 10.2391 8.2997 10.3422 8.46068C10.4453 8.62167 10.5001 8.80884 10.5001 9V15C10.5001 15.1912 10.4453 15.3783 10.3422 15.5393C10.2391 15.7003 10.0921 15.8284 9.91844 15.9083C9.74481 15.9883 9.55189 16.0169 9.36254 15.9906C9.17319 15.9643 8.99535 15.8843 8.85008 15.76L5.35008 12.76C5.2403 12.6661 5.15216 12.5496 5.09173 12.4184C5.03129 12.2872 5 12.1444 5 12C5 11.8556 5.03129 11.7128 5.09173 11.5816C5.15216 11.4504 5.2403 11.3339 5.35008 11.24L8.85008 8.24ZM12.0001 10C12.0001 9.73478 12.1054 9.48043 12.293 9.29289C12.4805 9.10536 12.7349 9 13.0001 9H18.0001C18.2653 9 18.5196 9.10536 18.7072 9.29289C18.8947 9.48043 19.0001 9.73478 19.0001 10C19.0001 10.2652 18.8947 10.5196 18.7072 10.7071C18.5196 10.8946 18.2653 11 18.0001 11H13.0001C12.7349 11 12.4805 10.8946 12.293 10.7071C12.1054 10.5196 12.0001 10.2652 12.0001 10ZM12.0001 14C12.0001 13.7348 12.1054 13.4804 12.293 13.2929C12.4805 13.1054 12.7349 13 13.0001 13H18.0001C18.2653 13 18.5196 13.1054 18.7072 13.2929C18.8947 13.4804 19.0001 13.7348 19.0001 14C19.0001 14.2652 18.8947 14.5196 18.7072 14.7071C18.5196 14.8946 18.2653 15 18.0001 15H13.0001C12.7349 15 12.4805 14.8946 12.293 14.7071C12.1054 14.5196 12.0001 14.2652 12.0001 14Z" fill="white"/>
</svg>
