<svg width="21" height="21" viewBox="0 0 21 21" fill="none" xmlns="http://www.w3.org/2000/svg">
<path d="M18.1059 14.5622L17.0625 13.7812V3.47813C17.0625 2.90377 16.8343 2.35293 16.4282 1.9468C16.0221 1.54066 15.4712 1.3125 14.8969 1.3125H6.75938C6.47498 1.3125 6.19337 1.36852 5.93063 1.47735C5.66788 1.58618 5.42914 1.7457 5.22805 1.9468C5.02695 2.14789 4.86743 2.38663 4.7586 2.64938C4.64977 2.91212 4.59375 3.19373 4.59375 3.47813V7.21875H3.28125C3.1072 7.21875 2.94028 7.28789 2.81721 7.41096C2.69414 7.53403 2.625 7.70095 2.625 7.875V17.7647C2.62673 18.2741 2.82987 18.7622 3.19009 19.1224C3.55031 19.4826 4.03838 19.6858 4.54781 19.6875H16.4522C16.9616 19.6858 17.4497 19.4826 17.8099 19.1224C18.1701 18.7622 18.3733 18.2741 18.375 17.7647V15.0938C18.3753 14.9902 18.351 14.8881 18.3043 14.7957C18.2575 14.7033 18.1895 14.6233 18.1059 14.5622ZM5.90625 3.47813C5.90625 3.25186 5.99613 3.03487 6.15612 2.87487C6.31612 2.71488 6.53311 2.625 6.75938 2.625H14.8969C15.1231 2.625 15.3401 2.71488 15.5001 2.87487C15.6601 3.03487 15.75 3.25186 15.75 3.47813V12.8362L8.26219 7.34344C8.14959 7.26192 8.01401 7.21826 7.875 7.21875H5.90625V3.47813ZM17.0625 17.7647C17.0625 17.9266 16.9982 18.0818 16.8837 18.1962C16.7693 18.3107 16.6141 18.375 16.4522 18.375H4.54781C4.38595 18.375 4.23071 18.3107 4.11626 18.1962C4.0018 18.0818 3.9375 17.9266 3.9375 17.7647V8.53125H7.65844L17.0625 15.4284V17.7647ZM7.875 5.25C7.875 5.07595 7.94414 4.90903 8.06721 4.78596C8.19028 4.66289 8.3572 4.59375 8.53125 4.59375H13.125C13.299 4.59375 13.466 4.66289 13.589 4.78596C13.7121 4.90903 13.7812 5.07595 13.7812 5.25C13.7812 5.42405 13.7121 5.59097 13.589 5.71404C13.466 5.83711 13.299 5.90625 13.125 5.90625H8.53125C8.3572 5.90625 8.19028 5.83711 8.06721 5.71404C7.94414 5.59097 7.875 5.42405 7.875 5.25ZM13.7812 7.21875C13.7812 7.3928 13.7121 7.55972 13.589 7.68279C13.466 7.80586 13.299 7.875 13.125 7.875H11.1562C10.9822 7.875 10.8153 7.80586 10.6922 7.68279C10.5691 7.55972 10.5 7.3928 10.5 7.21875C10.5 7.0447 10.5691 6.87778 10.6922 6.75471C10.8153 6.63164 10.9822 6.5625 11.1562 6.5625H13.125C13.299 6.5625 13.466 6.63164 13.589 6.75471C13.7121 6.87778 13.7812 7.0447 13.7812 7.21875Z" fill="white"/>
</svg>
