<svg width="17" height="17" viewBox="0 0 17 17" fill="none" xmlns="http://www.w3.org/2000/svg">
<path d="M15.4062 0H1.59375C1.17106 0 0.765685 0.167912 0.466799 0.466799C0.167912 0.765685 0 1.17106 0 1.59375L0 15.4062C0 15.8289 0.167912 16.2343 0.466799 16.5332C0.765685 16.8321 1.17106 17 1.59375 17H7.96875V15.9375H1.59375C1.45285 15.9375 1.31773 15.8815 1.2181 15.7819C1.11847 15.6823 1.0625 15.5471 1.0625 15.4062V5.3125H15.9375V7.96875H17V1.59375C17 1.17106 16.8321 0.765685 16.5332 0.466799C16.2343 0.167912 15.8289 0 15.4062 0ZM11.6875 4.25H5.3125V3.1875H11.6875V4.25ZM15.9375 4.25H12.75V2.65625C12.75 2.51535 12.694 2.38023 12.5944 2.2806C12.4948 2.18097 12.3596 2.125 12.2188 2.125H4.78125C4.64035 2.125 4.50523 2.18097 4.4056 2.2806C4.30597 2.38023 4.25 2.51535 4.25 2.65625V4.25H1.0625V1.59375C1.0625 1.45285 1.11847 1.31773 1.2181 1.2181C1.31773 1.11847 1.45285 1.0625 1.59375 1.0625H15.4062C15.5471 1.0625 15.6823 1.11847 15.7819 1.2181C15.8815 1.31773 15.9375 1.45285 15.9375 1.59375V4.25Z" fill="white"/>
<path d="M2.125 2.125H3.1875V3.1875H2.125V2.125ZM13.8125 2.125H14.875V3.1875H13.8125V2.125Z" fill="white"/>
<path d="M4.25 6.375H3.1875C2.8941 6.375 2.65625 6.61285 2.65625 6.90625V7.96875C2.65625 8.26215 2.8941 8.5 3.1875 8.5H4.25C4.5434 8.5 4.78125 8.26215 4.78125 7.96875V6.90625C4.78125 6.61285 4.5434 6.375 4.25 6.375Z" fill="white"/>
<path d="M11.1562 6.90625C11.1562 6.76535 11.1003 6.63023 11.0007 6.5306C10.901 6.43097 10.7659 6.375 10.625 6.375H9.5625C9.4216 6.375 9.28648 6.43097 9.18685 6.5306C9.08722 6.63023 9.03125 6.76535 9.03125 6.90625V7.4375H11.1562V6.90625ZM14.3438 6.90625C14.3438 6.76535 14.2878 6.63023 14.1882 6.5306C14.0885 6.43097 13.9534 6.375 13.8125 6.375H12.75C12.6091 6.375 12.474 6.43097 12.3743 6.5306C12.2747 6.63023 12.2188 6.76535 12.2188 6.90625V7.4375H14.3438V6.90625Z" fill="white"/>
<path d="M7.4375 6.375H6.375C6.0816 6.375 5.84375 6.61285 5.84375 6.90625V7.96875C5.84375 8.26215 6.0816 8.5 6.375 8.5H7.4375C7.7309 8.5 7.96875 8.26215 7.96875 7.96875V6.90625C7.96875 6.61285 7.7309 6.375 7.4375 6.375Z" fill="white"/>
<path d="M4.25 9.5625H3.1875C2.8941 9.5625 2.65625 9.80035 2.65625 10.0938V11.1562C2.65625 11.4497 2.8941 11.6875 3.1875 11.6875H4.25C4.5434 11.6875 4.78125 11.4497 4.78125 11.1562V10.0938C4.78125 9.80035 4.5434 9.5625 4.25 9.5625Z" fill="white"/>
<path d="M7.4375 9.5625H6.375C6.0816 9.5625 5.84375 9.80035 5.84375 10.0938V11.1562C5.84375 11.4497 6.0816 11.6875 6.375 11.6875H7.4375C7.7309 11.6875 7.96875 11.4497 7.96875 11.1562V10.0938C7.96875 9.80035 7.7309 9.5625 7.4375 9.5625Z" fill="white"/>
<path d="M4.25 12.75H3.1875C2.8941 12.75 2.65625 12.9878 2.65625 13.2812V14.3438C2.65625 14.6372 2.8941 14.875 3.1875 14.875H4.25C4.5434 14.875 4.78125 14.6372 4.78125 14.3438V13.2812C4.78125 12.9878 4.5434 12.75 4.25 12.75Z" fill="white"/>
<path d="M5.84375 13.2812V14.3438C5.84375 14.4846 5.89972 14.6198 5.99935 14.7194C6.09898 14.819 6.2341 14.875 6.375 14.875H7.4375V12.75H6.375C6.2341 12.75 6.09898 12.806 5.99935 12.9056C5.89972 13.0052 5.84375 13.1404 5.84375 13.2812ZM12.75 8.5C11.9094 8.5 11.0877 8.74926 10.3888 9.21625C9.68992 9.68325 9.14518 10.347 8.82351 11.1236C8.50184 11.9002 8.41768 12.7547 8.58166 13.5791C8.74565 14.4036 9.15042 15.1608 9.7448 15.7552C10.3392 16.3496 11.0964 16.7544 11.9209 16.9183C12.7453 17.0823 13.5998 16.9982 14.3764 16.6765C15.153 16.3548 15.8167 15.8101 16.2837 15.1112C16.7507 14.4123 17 13.5906 17 12.75C17 11.6228 16.5522 10.5418 15.7552 9.7448C14.9582 8.94777 13.8772 8.5 12.75 8.5ZM12.75 15.9375C12.1196 15.9375 11.5033 15.7506 10.9791 15.4003C10.4549 15.0501 10.0464 14.5522 9.80513 13.9698C9.56388 13.3874 9.50076 12.7465 9.62375 12.1281C9.74674 11.5098 10.0503 10.9419 10.4961 10.4961C10.9419 10.0503 11.5098 9.74674 12.1281 9.62375C12.7465 9.50076 13.3874 9.56388 13.9698 9.80513C14.5522 10.0464 15.0501 10.4549 15.4003 10.9791C15.7506 11.5033 15.9375 12.1196 15.9375 12.75C15.9375 13.5954 15.6017 14.4061 15.0039 15.0039C14.4061 15.6017 13.5954 15.9375 12.75 15.9375Z" fill="white"/>
<path d="M12.2188 10.625H13.2812V12.75H12.2188V10.625ZM12.2188 13.8125H13.2812V14.875H12.2188V13.8125Z" fill="white"/>
</svg>
