<svg width="19" height="19" viewBox="0 0 19 19" fill="none" xmlns="http://www.w3.org/2000/svg">
<path d="M17.375 4.90625H16.7188V2.85875C16.7188 2.18344 16.4505 1.53579 15.973 1.05828C15.4955 0.580765 14.8478 0.3125 14.1725 0.3125H8.84375C8.6697 0.3125 8.50278 0.38164 8.37971 0.504711C8.25664 0.627782 8.1875 0.794702 8.1875 0.96875C8.1875 1.1428 8.25664 1.30972 8.37971 1.43279C8.50278 1.55586 8.6697 1.625 8.84375 1.625H14.1725C14.3953 1.62705 14.6134 1.68907 14.804 1.80455C14.9945 1.92002 15.1504 2.08469 15.2553 2.28125H3.74469C3.84959 2.08469 4.00551 1.92002 4.19605 1.80455C4.38658 1.68907 4.60471 1.62705 4.8275 1.625H6.21875C6.3928 1.625 6.55972 1.55586 6.68279 1.43279C6.80586 1.30972 6.875 1.1428 6.875 0.96875C6.875 0.794702 6.80586 0.627782 6.68279 0.504711C6.55972 0.38164 6.3928 0.3125 6.21875 0.3125H4.8275C4.15219 0.3125 3.50454 0.580765 3.02703 1.05828C2.54951 1.53579 2.28125 2.18344 2.28125 2.85875V4.90625H1.625C1.45095 4.90625 1.28403 4.97539 1.16096 5.09846C1.03789 5.22153 0.96875 5.38845 0.96875 5.5625C0.96875 5.73655 1.03789 5.90347 1.16096 6.02654C1.28403 6.14961 1.45095 6.21875 1.625 6.21875H2.28125V15.4062C2.28125 15.5803 2.35039 15.7472 2.47346 15.8703C2.59653 15.9934 2.76345 16.0625 2.9375 16.0625H3.59375V16.3906C3.59375 16.9998 3.83574 17.584 4.26649 18.0148C4.69724 18.4455 5.28146 18.6875 5.89062 18.6875C6.49979 18.6875 7.08401 18.4455 7.51476 18.0148C7.94551 17.584 8.1875 16.9998 8.1875 16.3906V16.0625H10.8125V16.3906C10.8125 16.9998 11.0545 17.584 11.4852 18.0148C11.916 18.4455 12.5002 18.6875 13.1094 18.6875C13.7185 18.6875 14.3028 18.4455 14.7335 18.0148C15.1643 17.584 15.4062 16.9998 15.4062 16.3906V16.0625H16.0625C16.2365 16.0625 16.4035 15.9934 16.5265 15.8703C16.6496 15.7472 16.7188 15.5803 16.7188 15.4062V6.21875H17.375C17.549 6.21875 17.716 6.14961 17.839 6.02654C17.9621 5.90347 18.0312 5.73655 18.0312 5.5625C18.0312 5.38845 17.9621 5.22153 17.839 5.09846C17.716 4.97539 17.549 4.90625 17.375 4.90625ZM6.875 16.3906C6.875 16.6517 6.77129 16.9021 6.58668 17.0867C6.40208 17.2713 6.1517 17.375 5.89062 17.375C5.62955 17.375 5.37917 17.2713 5.19457 17.0867C5.00996 16.9021 4.90625 16.6517 4.90625 16.3906V16.0625H6.875V16.3906ZM14.0938 16.3906C14.0938 16.6517 13.99 16.9021 13.8054 17.0867C13.6208 17.2713 13.3704 17.375 13.1094 17.375C12.8483 17.375 12.5979 17.2713 12.4133 17.0867C12.2287 16.9021 12.125 16.6517 12.125 16.3906V16.0625H14.0938V16.3906ZM15.4062 14.75H3.59375V12.125H13.4375C13.6115 12.125 13.7785 12.0559 13.9015 11.9328C14.0246 11.8097 14.0938 11.6428 14.0938 11.4688C14.0938 11.2947 14.0246 11.1278 13.9015 11.0047C13.7785 10.8816 13.6115 10.8125 13.4375 10.8125H3.59375V3.59375H15.4062V14.75Z" fill="white"/>
<path d="M6.21875 12.7812C6.08896 12.7812 5.96208 12.8197 5.85416 12.8918C5.74624 12.964 5.66212 13.0665 5.61245 13.1864C5.56278 13.3063 5.54979 13.4382 5.57511 13.5655C5.60043 13.6928 5.66293 13.8098 5.75471 13.9015C5.84649 13.9933 5.96342 14.0558 6.09072 14.0811C6.21802 14.1065 6.34997 14.0935 6.46989 14.0438C6.5898 13.9941 6.69229 13.91 6.7644 13.8021C6.83651 13.6942 6.875 13.5673 6.875 13.4375C6.875 13.2635 6.80586 13.0965 6.68279 12.9735C6.55972 12.8504 6.3928 12.7812 6.21875 12.7812ZM12.7813 12.7812C12.6515 12.7812 12.5246 12.8197 12.4167 12.8918C12.3087 12.964 12.2246 13.0665 12.175 13.1864C12.1253 13.3063 12.1123 13.4382 12.1376 13.5655C12.1629 13.6928 12.2254 13.8098 12.3172 13.9015C12.409 13.9933 12.5259 14.0558 12.6532 14.0811C12.7805 14.1065 12.9125 14.0935 13.0324 14.0438C13.1523 13.9941 13.2548 13.91 13.3269 13.8021C13.399 13.6942 13.4375 13.5673 13.4375 13.4375C13.4375 13.2635 13.3684 13.0965 13.2453 12.9735C13.1222 12.8504 12.9553 12.7812 12.7813 12.7812Z" fill="white"/>
</svg>
