<svg width="189" height="55" viewBox="0 0 189 55" fill="none" xmlns="http://www.w3.org/2000/svg">
<path d="M174.624 22.8945L166.539 25.246V38.1083L174.624 36.2829V22.8945Z" fill="white"/>
<path d="M174.624 19.1382L166.539 21.4897V24.3567L174.624 22.0052V19.1382Z" fill="white"/>
<path d="M174.631 22.8889L174.625 22.8942V36.2825L182.705 33.1524V24.888L174.631 22.8889Z" fill="white"/>
<path d="M174.625 19.1382V22.0052L182.705 24.0358V21.3003L174.625 19.1382Z" fill="white"/>
<path d="M150.233 22.5524H150.064L150.11 17.8178L150.233 17.7126C150.341 17.6232 161.098 14.4563 168.978 0.526065L169.275 0L169.573 0.526065C177.314 14.451 188.749 17.6179 188.861 17.7073L189 17.8126V22.5471H188.831L188.318 18.165C187.01 17.1129 176.621 16.45 169.275 3.51937C161.832 16.45 152.018 17.1181 150.808 18.1598L150.233 22.5524Z" fill="white"/>
<g opacity="0.2">
<path opacity="0.2" d="M157.303 18.2123L156.995 17.5863C164.603 13.604 167.588 7.64893 167.614 7.59106C167.491 7.84358 165.11 14.1301 157.303 18.2123Z" fill="white"/>
</g>
<g opacity="0.2">
<path opacity="0.2" d="M180.328 16.8866C172.977 13.4409 171.018 7.81727 170.925 7.59106C170.925 7.64367 173.49 12.8991 180.626 16.2501L180.328 16.8866Z" fill="white"/>
</g>
<path d="M166.541 28.2654H156.584V30.1119H166.541V28.2654Z" fill="white"/>
<path d="M166.542 26.1453H156.995V27.9918H166.542V26.1453Z" fill="white"/>
<path d="M150.919 55C150.919 55 154.685 51.4806 156.301 49.9603C159.892 49.3553 170.47 47.6193 187.557 34.8938C180.591 42.8058 168.874 51.691 150.919 55Z" fill="white"/>
<path d="M169.999 49.0872C175.657 51.8312 181.652 53.7778 187.82 54.8739L182.433 49.8342C179.244 49.3248 176.114 48.4822 173.092 47.3196C172.569 47.6826 171.635 48.2297 169.999 49.0872Z" fill="white"/>
<path d="M168.997 45.631C162.707 42.6591 156.734 39.0256 151.176 34.7888C155.448 39.6173 160.444 43.716 165.976 46.9304C166.699 46.6253 167.771 46.1729 168.997 45.631Z" fill="white"/>
<path d="M156.207 32.8476V30.3699H166.539V35.5937C163.022 34.9984 159.564 34.0793 156.207 32.8476Z" fill="white"/>
<path d="M165.128 16.7232V16.597C165.174 16.5654 165.211 16.5218 165.236 16.4706C165.26 16.4195 165.271 16.3626 165.266 16.3058C165.262 16.2491 165.243 16.1945 165.212 16.1477C165.18 16.1008 165.137 16.0635 165.087 16.0393L165.061 15.7184C165.106 15.6968 165.145 15.6627 165.172 15.62C165.199 15.5772 165.214 15.5275 165.215 15.4764C165.214 15.4186 165.194 15.3627 165.16 15.3165C165.126 15.2703 165.079 15.2361 165.025 15.2187V14.8978C165.074 14.8859 165.117 14.8576 165.148 14.8175C165.178 14.7774 165.195 14.7278 165.195 14.6768C165.194 14.6206 165.173 14.5667 165.136 14.5251C165.099 14.4835 165.049 14.457 164.995 14.4506L164.959 13.9824L164.928 14.4559C164.88 14.4657 164.837 14.4914 164.805 14.5291C164.773 14.5668 164.754 14.6142 164.751 14.6641C164.748 14.7139 164.761 14.7634 164.789 14.8047C164.816 14.846 164.856 14.8769 164.902 14.8925V15.2239C164.851 15.2417 164.806 15.2757 164.775 15.3211C164.744 15.3665 164.727 15.4209 164.728 15.4764C164.728 15.5256 164.742 15.5737 164.767 15.6154C164.793 15.6572 164.829 15.691 164.872 15.7132L164.846 16.0446C164.794 16.0717 164.75 16.1131 164.719 16.1641C164.688 16.2152 164.672 16.2739 164.671 16.3339C164.672 16.3867 164.685 16.4385 164.71 16.4845C164.735 16.5306 164.771 16.5692 164.815 16.597V16.7232C164.815 16.7232 164.415 18.0857 160.803 20.0743C159.94 20.536 159.193 21.1984 158.623 22.0085C158.053 22.8187 157.675 23.7542 157.52 24.7404C157.45 25.1307 157.421 25.5275 157.433 25.9241H166.595V21.4894L169.832 20.5477C168.095 19.5084 166.511 18.2206 165.128 16.7232Z" fill="white"/>
<path d="M184.834 30.6378C184.834 30.6378 182.116 33.2207 180.007 33.6784C177.899 34.1361 175.262 34.0467 173.046 34.3886C170.83 34.7305 169.527 37.0189 169.527 37.0189C169.527 37.0189 168.229 34.7516 166.013 34.3886C163.797 34.0256 161.155 34.1308 159.046 33.6784C156.938 33.226 154.219 30.6378 154.219 30.6378C154.219 30.6378 151.557 29.9223 150.064 30.2853C150.505 30.6588 151.351 31.3111 151.346 31.3059C158.59 36.698 164.684 40.1174 169.527 42.3111C174.359 40.1332 180.371 36.7506 187.533 31.4374C187.959 31.1165 188.477 30.7061 188.974 30.28C187.476 29.9276 184.834 30.6378 184.834 30.6378Z" fill="white"/>
<path d="M0.0217285 21.5212C0.0217285 18.6857 1.30422 17.4758 3.47418 17.4758C5.64414 17.4758 6.93175 18.6857 6.93175 21.5212C6.93175 24.3567 5.59284 25.5403 3.47418 25.5403C1.35552 25.5403 0.0217285 24.3409 0.0217285 21.5212ZM1.56071 21.5212C1.56071 23.2993 2.11987 24.0831 3.49469 24.0831C4.86952 24.0831 5.43381 23.2993 5.43381 21.5212C5.43381 19.8904 4.86952 18.9224 3.49469 18.9224C2.11987 18.9224 1.54019 19.8904 1.54019 21.5212H1.56071ZM1.77616 15.9765C1.75158 15.9812 1.72626 15.9797 1.70237 15.9721C1.67849 15.9645 1.65676 15.9511 1.63908 15.9329C1.6214 15.9148 1.60829 15.8925 1.60089 15.868C1.59349 15.8435 1.59203 15.8176 1.59662 15.7923V14.4351C1.59203 14.4099 1.59349 14.3839 1.60089 14.3594C1.60829 14.3349 1.6214 14.3126 1.63908 14.2945C1.65676 14.2764 1.67849 14.2629 1.70237 14.2554C1.72626 14.2478 1.75158 14.2463 1.77616 14.251H3.00735C3.1356 14.251 3.1869 14.3088 3.1869 14.4351V15.7923C3.1869 15.9186 3.1356 15.9765 3.00735 15.9765H1.77616ZM3.98717 15.9765C3.85892 15.9765 3.80249 15.9186 3.80249 15.7923V14.4351C3.80249 14.3088 3.85892 14.251 3.98717 14.251H5.21323C5.34147 14.251 5.3979 14.3088 5.3979 14.4351V15.7923C5.3979 15.9186 5.34147 15.9765 5.21323 15.9765H3.98717Z" fill="white"/>
<path d="M8.10533 29.0913C7.97708 29.0913 7.92578 29.0335 7.92578 28.9019V27.8498C7.92578 27.7183 7.97708 27.6657 8.10533 27.6657H8.52086C9.49554 27.6657 9.98288 27.1396 9.98288 26.0875V17.9966C9.98288 17.8651 10.0393 17.8125 10.1676 17.8125H11.3218C11.45 17.8125 11.5065 17.8651 11.5065 17.9966V22.6891C11.5065 23.5256 12.1221 23.9517 13.1327 23.9517H13.3327C13.8457 23.9517 14.056 24.1358 14.056 24.6356C14.056 25.2879 13.8355 25.3984 13.3327 25.3984H12.9531C12.6845 25.412 12.4161 25.3659 12.1664 25.2633C11.9167 25.1607 11.6916 25.004 11.5065 24.8039V26.0296C11.5065 28.0339 10.4805 29.0913 8.59267 29.0913H8.10533Z" fill="white"/>
<path d="M13.3473 25.3983C12.8599 25.3983 12.7317 25.2142 12.7317 24.6934C12.7317 24.0832 12.8446 23.9517 13.3473 23.9517H15.3377C15.8507 23.9517 16.061 24.12 16.061 24.6355C16.061 25.251 15.8456 25.3983 15.3377 25.3983H13.3473Z" fill="white"/>
<path d="M15.3583 25.3983C14.8453 25.3983 14.7427 25.2142 14.7427 24.6934C14.7427 24.0832 14.8504 23.9517 15.3583 23.9517H17.3436C17.8565 23.9517 18.0669 24.12 18.0669 24.6355C18.0669 25.251 17.8514 25.3983 17.3436 25.3983H15.3583Z" fill="white"/>
<path d="M17.3658 25.3983C16.8528 25.3983 16.7502 25.2142 16.7502 24.6934C16.7502 24.0832 16.858 23.9517 17.3658 23.9517H19.3563C19.8436 23.9517 20.0796 24.12 20.0796 24.6355C20.0796 25.251 19.859 25.3983 19.3563 25.3983H17.3658Z" fill="white"/>
<path d="M22.2137 24.4883C21.9707 24.8091 21.6519 25.061 21.2874 25.2203C20.923 25.3796 20.525 25.4408 20.131 25.3984H19.3564C19.2578 25.4147 19.1568 25.4067 19.0618 25.3752C18.9668 25.3437 18.8804 25.2895 18.8098 25.2171C18.7392 25.1447 18.6864 25.0561 18.6556 24.9587C18.6249 24.8612 18.6171 24.7577 18.633 24.6566C18.633 24.0464 18.8485 23.9517 19.3564 23.9517H20.2592C20.7722 23.9517 21.3827 23.5414 21.3827 22.263C21.3827 22.021 21.3827 21.8001 21.3827 21.5213C21.3827 18.6858 22.6652 17.4758 24.8351 17.4758C27.0051 17.4758 28.2927 18.6858 28.2927 21.5213C28.2927 21.8001 28.2927 22.0789 28.2568 22.3209C28.2568 23.5782 28.8519 23.9517 29.3751 23.9517H29.8881C30.3755 23.9517 30.6114 24.1358 30.6114 24.6356C30.6114 25.2879 30.3908 25.3984 29.8881 25.3984H29.488C28.8211 25.3984 27.8977 25.3037 27.4103 24.5093C27.0804 24.8673 26.6764 25.1448 26.2281 25.3214C25.7798 25.498 25.2985 25.5693 24.8197 25.5299C24.3365 25.573 23.8501 25.5015 23.3982 25.3208C22.9463 25.1402 22.541 24.8553 22.2137 24.4883ZM22.8806 21.5213C22.8806 23.2994 23.4398 24.0832 24.8146 24.0832C26.1894 24.0832 26.7537 23.2994 26.7537 21.5213C26.7537 19.8905 26.1894 18.9225 24.8146 18.9225C23.4398 18.9225 22.8806 19.8905 22.8806 21.5213Z" fill="white"/>
<path d="M38.5782 20.369C38.5384 21.0891 38.3279 21.7884 37.9649 22.4063C37.602 23.0242 37.0976 23.5419 36.4954 23.9147C36.6734 23.9578 36.8567 23.9738 37.0392 23.962H39.6965C40.2095 23.962 40.4198 24.0935 40.4198 24.6091C40.4198 25.2246 40.2044 25.4087 39.6965 25.4087H37.1315C36.3112 25.4497 35.4964 25.2508 34.782 24.8353C34.0175 25.2248 33.1733 25.4213 32.3197 25.4087H29.8573C29.7589 25.4238 29.6584 25.415 29.564 25.3831C29.4695 25.3512 29.3836 25.297 29.3133 25.2248C29.2429 25.1527 29.1901 25.0646 29.1589 24.9677C29.1278 24.8709 29.1192 24.7678 29.134 24.6669C29.134 24.0567 29.3494 23.962 29.8573 23.962H32.1914C32.7115 23.9726 33.2302 23.9035 33.7304 23.7568C33.3354 21.7525 32.3556 21.1265 31.2732 20.2901C31.0577 20.1217 31.0218 20.0481 31.0218 19.9166V18.8066C31.0142 18.7333 31.027 18.6593 31.0588 18.5931C31.0906 18.527 31.14 18.4715 31.2013 18.4331C32.2992 17.8067 33.5359 17.4806 34.7923 17.4862C37.388 17.4756 38.5782 18.5909 38.5782 20.369ZM32.5556 19.4063C33.2239 19.8217 33.8015 20.3737 34.2525 21.0281C34.7035 21.6825 35.0182 22.4251 35.177 23.2097C35.9568 22.71 36.9828 21.6894 36.9828 20.4847C36.9828 19.28 36.0286 18.9065 34.7974 18.9065C34.0175 18.8924 33.245 19.0635 32.5402 19.4063H32.5556Z" fill="white"/>
<path d="M39.7006 25.3983C39.2132 25.3983 39.085 25.2142 39.085 24.6934C39.085 24.0832 39.1927 23.9517 39.7006 23.9517H41.691C42.1783 23.9517 42.4143 24.12 42.4143 24.6355C42.4143 25.251 42.1937 25.3983 41.691 25.3983H39.7006Z" fill="white"/>
<path d="M41.7081 25.3983C41.1951 25.3983 41.0925 25.2142 41.0925 24.6934C41.0925 24.0832 41.2003 23.9517 41.7081 23.9517H43.7088C44.1961 23.9517 44.4321 24.12 44.4321 24.6355C44.4321 25.251 44.2167 25.3983 43.7088 25.3983H41.7081Z" fill="white"/>
<path d="M43.7062 25.3987C43.1932 25.3987 42.9829 25.2672 42.9829 24.7517C42.9829 24.1362 43.1984 23.952 43.7062 23.952H44.8451C45.4402 23.952 45.712 23.7101 45.712 22.9683V12.9731C45.712 12.8416 45.7685 12.7837 45.8916 12.7837H47.0509C47.1792 12.7837 47.2305 12.8416 47.2305 12.9731V23.063C47.2305 24.6938 46.6354 25.3987 45.117 25.3987H43.7062Z" fill="white"/>
<path d="M51.2692 25.2146C51.2738 25.2398 51.2723 25.2658 51.2649 25.2903C51.2575 25.3148 51.2444 25.3371 51.2267 25.3552C51.209 25.3733 51.1873 25.3868 51.1634 25.3943C51.1395 25.4019 51.1142 25.4034 51.0896 25.3987H49.9303C49.802 25.3987 49.7507 25.3409 49.7507 25.2146V12.9731C49.7507 12.8416 49.802 12.7837 49.9303 12.7837H51.0896C51.2128 12.7837 51.2692 12.8416 51.2692 12.9731V25.2146Z" fill="white"/>
<path d="M55.0683 29.0915C54.9452 29.0915 54.8887 29.0337 54.8887 28.9022V27.85C54.8887 27.7185 54.9452 27.6659 55.0683 27.6659H57.2382C58.1975 27.6659 58.9209 27.2924 58.9209 25.9036V25.4196H56.9869C54.8528 25.4196 53.5344 24.4727 53.5344 21.653C53.5344 18.8333 55.0734 17.4971 57.0228 17.4971C59.1927 17.4971 60.4444 18.707 60.4444 21.5425V25.8668C60.4444 28.1657 59.1927 29.1126 57.3152 29.1126L55.0683 29.0915ZM55.0683 21.6319C55.0683 23.3943 55.7557 23.9519 57.1202 23.9519H58.9465V21.5215C58.9465 19.8907 58.4335 18.9227 57.0484 18.9227C55.7916 18.9227 55.0529 20.0011 55.0529 21.6319H55.0683Z" fill="white"/>
<path d="M69.5525 29.0912C67.675 29.0912 66.572 28.3284 66.572 26.5503C66.572 24.525 68.0341 23.9516 69.137 23.9516H71.9944C73.3538 23.9516 73.5333 23.5412 73.5333 22.1892C73.5333 20.2428 72.9331 18.9224 71.071 18.9224C70.6813 18.9235 70.2964 19.0105 69.9423 19.1775C69.5883 19.3445 69.2734 19.5876 69.019 19.8903C69.0031 19.9092 68.9834 19.9244 68.9613 19.9348C68.9392 19.9452 68.9151 19.9506 68.8908 19.9506C68.8664 19.9506 68.8424 19.9452 68.8202 19.9348C68.7981 19.9244 68.7784 19.9092 68.7625 19.8903L67.9981 19.2275C67.8904 19.1381 67.875 19.0644 67.9469 18.9697C68.306 18.4857 68.7727 18.0967 69.3081 17.835C69.8434 17.5733 70.432 17.4465 71.0248 17.4652C74.3336 17.4652 75.1288 19.7483 75.1288 22.1998C75.1188 22.403 75.1188 22.6067 75.1288 22.81C75.1801 23.5728 75.8162 23.9621 76.7549 23.9621H76.955C77.4424 23.9621 77.6783 24.1462 77.6783 24.646C77.6783 25.2983 77.4629 25.4088 76.955 25.4088H76.5754C76.2075 25.445 75.8377 25.3633 75.517 25.1748C75.1963 24.9864 74.9405 24.7005 74.785 24.3566C74.3695 25.1562 73.6462 25.4088 72.5433 25.4088H69.1216C68.9786 25.3953 68.8345 25.4152 68.7002 25.4671C68.5658 25.519 68.4447 25.6015 68.3459 25.7084C68.2471 25.8152 68.1733 25.9437 68.1299 26.0841C68.0866 26.2244 68.0748 26.3731 68.0956 26.5188C68.0956 27.3184 68.4188 27.655 69.6346 27.655H70.2502C70.3784 27.655 70.4297 27.7077 70.4297 27.8392V28.8913C70.4297 29.0228 70.3784 29.0807 70.2502 29.0807L69.5525 29.0912ZM71.3839 28.8492C71.2557 28.8492 71.1992 28.7914 71.1992 28.6651V27.3078C71.1992 27.1763 71.2557 27.1237 71.3839 27.1237H72.61C72.7382 27.1237 72.7946 27.1763 72.7946 27.3078V28.6651C72.7946 28.7914 72.7382 28.8492 72.61 28.8492H71.3839Z" fill="white"/>
<path d="M76.9882 25.3983C76.5008 25.3983 76.3726 25.2142 76.3726 24.6934C76.3726 24.0832 76.4854 23.9517 76.9882 23.9517H78.9786C79.4659 23.9517 79.7019 24.12 79.7019 24.6355C79.7019 25.251 79.4864 25.3983 78.9786 25.3983H76.9882Z" fill="white"/>
<path d="M78.9989 25.3983C78.4859 25.3983 78.3833 25.2142 78.3833 24.6934C78.3833 24.0832 78.491 23.9517 78.9989 23.9517H80.9842C81.4972 23.9517 81.7075 24.12 81.7075 24.6355C81.7075 25.251 81.492 25.3983 80.9842 25.3983H78.9989Z" fill="white"/>
<path d="M81.0035 25.3983C80.5162 25.3983 80.3879 25.2142 80.3879 24.6934C80.3879 24.0832 80.4957 23.9517 81.0035 23.9517H82.9939C83.5069 23.9517 83.7173 24.12 83.7173 24.6355C83.7173 25.251 83.4967 25.3983 82.9939 25.3983H81.0035Z" fill="white"/>
<path d="M85.1794 19.8907C85.164 19.9095 85.1448 19.9246 85.1231 19.935C85.1013 19.9453 85.0777 19.9507 85.0537 19.9507C85.0298 19.9507 85.0061 19.9453 84.9844 19.935C84.9627 19.9246 84.9434 19.9095 84.928 19.8907L84.1329 19.2278C84.0252 19.1384 84.0047 19.0647 84.0765 18.9701C84.4362 18.4867 84.903 18.0982 85.4382 17.8365C85.9735 17.5749 86.5618 17.4477 87.1544 17.4655C90.4633 17.4655 91.2584 19.7486 91.2584 22.2001C91.2584 22.421 91.2225 22.6104 91.2584 22.8103C91.3148 23.5731 91.9458 23.9624 92.8897 23.9624H93.0898C93.5771 23.9624 93.8131 24.1465 93.8131 24.6463C93.8131 25.2986 93.5925 25.4091 93.0898 25.4091H92.7102C92.3416 25.4449 91.9713 25.3631 91.6499 25.1747C91.3285 24.9864 91.0717 24.7007 90.9147 24.357C90.4992 25.1566 89.7758 25.4091 88.6729 25.4091H82.9787C82.8801 25.4254 82.7791 25.4174 82.6841 25.3859C82.5891 25.3544 82.5027 25.3002 82.4321 25.2278C82.3615 25.1554 82.3087 25.0668 82.2779 24.9694C82.2472 24.872 82.2395 24.7684 82.2553 24.6673C82.2553 24.0571 82.4708 23.9624 82.9787 23.9624H88.1086C89.4629 23.9624 89.6476 23.5521 89.6476 22.2001C89.6476 20.2537 89.0525 18.9332 87.1903 18.9332C86.8085 18.9396 86.4322 19.0282 86.0858 19.1931C85.7394 19.358 85.4306 19.5957 85.1794 19.8907Z" fill="white"/>
<path d="M93.0988 25.3987C92.5858 25.3987 92.3755 25.2672 92.3755 24.7517C92.3755 24.1362 92.5961 23.952 93.0988 23.952H94.2377C94.8379 23.952 95.1097 23.7101 95.1097 22.9683V12.9731C95.1097 12.8416 95.161 12.7837 95.2893 12.7837H96.4487C96.5718 12.7837 96.6282 12.8416 96.6282 12.9731V23.063C96.6282 24.6938 96.028 25.3987 94.5095 25.3987H93.0988Z" fill="white"/>
<path d="M100.682 25.2146C100.682 25.3409 100.625 25.3987 100.497 25.3987H99.3429C99.2146 25.3987 99.1582 25.3409 99.1582 25.2146V12.9731C99.1582 12.8416 99.2146 12.7837 99.3429 12.7837H100.497C100.625 12.7837 100.682 12.8416 100.682 12.9731V25.2146Z" fill="white"/>
<path d="M107.099 21.5212C107.099 18.6857 108.382 17.4758 110.557 17.4758C112.732 17.4758 114.009 18.6857 114.009 21.5212C114.009 24.3567 112.67 25.5298 110.557 25.5298C108.443 25.5298 107.099 24.3409 107.099 21.5212ZM108.638 21.5212C108.638 23.2993 109.203 24.0831 110.577 24.0831C111.952 24.0831 112.511 23.2993 112.511 21.5212C112.511 19.8904 111.952 18.9224 110.577 18.9224C109.203 18.9224 108.618 19.8904 108.618 21.5212H108.638ZM108.859 15.9765C108.731 15.9765 108.674 15.9186 108.674 15.7923V14.4351C108.674 14.3088 108.731 14.251 108.859 14.251H110.085C110.213 14.251 110.27 14.3088 110.27 14.4351V15.7923C110.27 15.9186 110.213 15.9765 110.085 15.9765H108.859ZM111.065 15.9765C110.937 15.9765 110.885 15.9186 110.885 15.7923V14.4351C110.885 14.3088 110.937 14.251 111.065 14.251H112.296C112.321 14.2463 112.346 14.2478 112.37 14.2554C112.394 14.2629 112.415 14.2764 112.433 14.2945C112.451 14.3126 112.464 14.3349 112.471 14.3594C112.479 14.3839 112.48 14.4099 112.476 14.4351V15.7923C112.48 15.8176 112.479 15.8435 112.471 15.868C112.464 15.8925 112.451 15.9148 112.433 15.9329C112.415 15.9511 112.394 15.9645 112.37 15.9721C112.346 15.9797 112.321 15.9812 112.296 15.9765H111.065Z" fill="white"/>
<path d="M115.183 29.0913C115.055 29.0913 115.003 29.0335 115.003 28.9019V27.8498C115.003 27.7183 115.055 27.6657 115.183 27.6657H115.598C116.573 27.6657 117.066 27.1396 117.066 26.0875V17.9966C117.066 17.8651 117.117 17.8125 117.245 17.8125H118.399C118.528 17.8125 118.584 17.8651 118.584 17.9966V26.0296C118.584 28.0339 117.558 29.0913 115.67 29.0913H115.183Z" fill="white"/>
<path d="M122.545 25.2146C122.55 25.2398 122.548 25.2658 122.541 25.2903C122.533 25.3148 122.52 25.3371 122.503 25.3552C122.485 25.3733 122.463 25.3868 122.439 25.3943C122.415 25.4019 122.39 25.4034 122.366 25.3987H121.206C121.078 25.3987 121.027 25.3409 121.027 25.2146V12.9731C121.027 12.8416 121.078 12.7837 121.206 12.7837H122.366C122.489 12.7837 122.545 12.8416 122.545 12.9731V25.2146Z" fill="white"/>
<path d="M123.992 29.0913C123.864 29.0913 123.812 29.0334 123.812 28.9019V27.8497C123.812 27.7182 123.864 27.6656 123.992 27.6656H124.408C125.382 27.6656 125.875 27.1396 125.875 26.0874V17.9966C125.875 17.865 125.926 17.8124 126.054 17.8124H127.209C127.337 17.8124 127.393 17.865 127.393 17.9966V26.0296C127.393 28.0339 126.367 29.0913 124.479 29.0913H123.992ZM126.044 15.9765C125.916 15.9765 125.864 15.9186 125.864 15.7923V14.4351C125.864 14.3088 125.916 14.251 126.044 14.251H127.275C127.3 14.2463 127.325 14.2478 127.349 14.2554C127.373 14.2629 127.395 14.2764 127.412 14.2945C127.43 14.3126 127.443 14.3349 127.45 14.3594C127.458 14.3839 127.459 14.4099 127.455 14.4351V15.7923C127.459 15.8176 127.458 15.8435 127.45 15.868C127.443 15.8925 127.43 15.9148 127.412 15.9329C127.395 15.9511 127.373 15.9645 127.349 15.9721C127.325 15.9797 127.3 15.9812 127.275 15.9765H126.044Z" fill="white"/>
<path d="M131.098 29.0915C130.975 29.0915 130.918 29.0337 130.918 28.9022V27.85C130.918 27.7185 130.975 27.6659 131.098 27.6659H133.273C134.227 27.6659 134.95 27.2924 134.95 25.9036V25.4196H133.016C130.882 25.4196 129.564 24.4727 129.564 21.653C129.564 18.8333 131.103 17.4971 133.052 17.4971C135.222 17.4971 136.474 18.707 136.474 21.5425V25.8668C136.474 28.1657 135.222 29.1126 133.345 29.1126L131.098 29.0915ZM131.098 21.6319C131.098 23.3943 131.785 23.9519 133.15 23.9519H134.976V21.5215C134.976 19.8907 134.463 18.9227 133.078 18.9227C131.821 18.9227 131.082 20.0011 131.082 21.6319H131.098Z" fill="white"/>
<path d="M0.0205163 35.1411C0.0205163 35.0675 0.0512943 35.0359 0.123113 35.0359H0.784879C0.819718 35.0325 0.854689 35.0409 0.884368 35.0599C0.914048 35.079 0.936774 35.1075 0.949033 35.1411L3.00101 39.9283H3.03179L5.05811 35.1411C5.07037 35.1075 5.0931 35.079 5.12278 35.0599C5.15246 35.0409 5.18743 35.0325 5.22227 35.0359H5.88403C5.95585 35.0359 5.98663 35.0675 5.98663 35.1411V42.0378C5.98663 42.1115 5.95585 42.143 5.88403 42.143H5.24279C5.17097 42.143 5.14019 42.1115 5.14019 42.0378V37.1139H5.10941L3.38575 41.0173C3.37207 41.0546 3.34751 41.0868 3.31539 41.1094C3.28327 41.132 3.24515 41.1439 3.20621 41.1435H2.79581C2.75459 41.1457 2.71373 41.1347 2.67883 41.1121C2.64393 41.0895 2.61669 41.0564 2.60087 41.0173L0.897738 37.1139H0.86696V42.0536C0.86696 42.1273 0.836174 42.1588 0.764355 42.1588H0.102597C0.030778 42.1588 0 42.1273 0 42.0536L0.0205163 35.1411Z" fill="white"/>
<path d="M7.65381 35.1411C7.65381 35.0675 7.68459 35.0359 7.75641 35.0359H8.4592C8.53102 35.0359 8.56181 35.0675 8.56181 35.1411V42.0378C8.56181 42.1115 8.53102 42.143 8.4592 42.143H7.75641C7.68459 42.143 7.65381 42.1115 7.65381 42.0378V35.1411Z" fill="white"/>
<path d="M10.2144 35.1409C10.2144 35.0673 10.2451 35.0357 10.3118 35.0357H10.9684C11.0041 35.0311 11.0403 35.0389 11.071 35.058C11.1017 35.0771 11.1253 35.1064 11.1377 35.1409L14.2773 40.47H14.3183V35.1409C14.3183 35.0673 14.3491 35.0357 14.4209 35.0357H15.0621C15.134 35.0357 15.1647 35.0673 15.1647 35.1409V42.0377C15.1647 42.1113 15.134 42.1429 15.0621 42.1429H14.4106C14.3743 42.1478 14.3374 42.1402 14.3057 42.1211C14.2741 42.102 14.2497 42.0727 14.2362 42.0377L11.0864 36.7297H11.0557V42.0377C11.0557 42.1113 11.0557 42.1429 10.9582 42.1429H10.3118C10.2451 42.1429 10.2144 42.1113 10.2144 42.0377V35.1409Z" fill="white"/>
<path d="M16.8152 35.1411C16.8152 35.0675 16.846 35.0359 16.9178 35.0359H17.6206C17.6924 35.0359 17.7232 35.0675 17.7232 35.1411V42.0378C17.7232 42.1115 17.6924 42.143 17.6206 42.143H16.9178C16.846 42.143 16.8152 42.1115 16.8152 42.0378V35.1411Z" fill="white"/>
<path d="M19.0367 41.3697C19.0258 41.3598 19.017 41.3477 19.011 41.3341C19.0051 41.3205 19.002 41.3057 19.002 41.2908C19.002 41.2759 19.0051 41.2611 19.011 41.2475C19.017 41.2339 19.0258 41.2217 19.0367 41.2119L19.483 40.6858C19.4916 40.6748 19.5026 40.666 19.515 40.6599C19.5274 40.6538 19.541 40.6506 19.5548 40.6506C19.5686 40.6506 19.5822 40.6538 19.5946 40.6599C19.607 40.666 19.618 40.6748 19.6266 40.6858C20.1754 41.1444 20.858 41.4018 21.5657 41.417C22.5404 41.417 23.1047 40.9278 23.1047 40.2071C23.1047 39.5863 22.7559 39.2128 21.6581 39.0445L21.3092 38.9919C19.9549 38.7815 19.2573 38.1239 19.2573 37.0297C19.2573 35.7618 20.1345 34.9254 21.5196 34.9254C22.272 34.9197 23.008 35.1511 23.628 35.5882C23.6386 35.5966 23.6472 35.6073 23.6532 35.6197C23.6591 35.632 23.6622 35.6455 23.6622 35.6593C23.6622 35.673 23.6591 35.6865 23.6532 35.6989C23.6472 35.7112 23.6386 35.7219 23.628 35.7303L23.2791 36.3089C23.26 36.3282 23.2342 36.339 23.2073 36.339C23.1805 36.339 23.1547 36.3282 23.1355 36.3089C22.6446 35.9643 22.0632 35.7809 21.4683 35.7829C20.6116 35.7829 20.155 36.2563 20.155 36.935C20.155 37.5294 20.5398 37.9082 21.6119 38.0713L21.9454 38.1239C23.2997 38.3343 23.9973 38.9288 23.9973 40.1124C23.9973 41.296 23.1458 42.2535 21.4734 42.2535C20.5864 42.2537 19.7263 41.9417 19.0367 41.3697Z" fill="white"/>
<path d="M26.8665 42.143C26.7947 42.143 26.7639 42.1115 26.7639 42.0378V35.967C26.7647 35.9585 26.7636 35.95 26.7608 35.9419C26.758 35.9339 26.7535 35.9266 26.7476 35.9206C26.7417 35.9145 26.7346 35.9099 26.7268 35.907C26.719 35.9042 26.7106 35.9031 26.7023 35.9039H24.8094C24.7376 35.9039 24.7068 35.8723 24.7068 35.7987V35.1411C24.7068 35.0675 24.7376 35.0359 24.8094 35.0359H29.6264C29.6982 35.0359 29.729 35.0675 29.729 35.1411V35.7987C29.729 35.8723 29.6982 35.9039 29.6264 35.9039H27.7334C27.7252 35.9031 27.7168 35.9042 27.709 35.907C27.7011 35.9099 27.694 35.9145 27.6882 35.9206C27.6823 35.9266 27.6778 35.9339 27.6749 35.9419C27.6721 35.95 27.6711 35.9585 27.6719 35.967V42.0378C27.6719 42.1115 27.6411 42.143 27.5693 42.143H26.8665Z" fill="white"/>
<path d="M34.7599 42.143C34.6983 42.143 34.6624 42.1115 34.6317 42.0378L33.2414 39.1339H31.7025C31.6942 39.1331 31.6858 39.1342 31.678 39.1371C31.6702 39.14 31.6631 39.1446 31.6572 39.1506C31.6513 39.1567 31.6468 39.1639 31.644 39.172C31.6412 39.18 31.6401 39.1886 31.6409 39.1971V42.0378C31.6409 42.1115 31.6101 42.143 31.5383 42.143H30.8355C30.7637 42.143 30.7329 42.1115 30.7329 42.0378V35.1411C30.7329 35.0675 30.7637 35.0359 30.8355 35.0359H33.3389C34.6368 35.0359 35.5089 35.8513 35.5089 37.0875C35.5269 37.52 35.4019 37.9459 35.1542 38.2964C34.9066 38.6468 34.5507 38.9012 34.1443 39.0182L35.6217 42.0168C35.673 42.1009 35.6525 42.143 35.5602 42.143H34.7599ZM33.3338 38.2659C34.1494 38.2659 34.6214 37.8398 34.6214 37.0875C34.6214 36.3353 34.1494 35.9039 33.3338 35.9039H31.7179C31.7096 35.9031 31.7012 35.9042 31.6934 35.907C31.6856 35.9099 31.6784 35.9145 31.6726 35.9206C31.6667 35.9266 31.6622 35.9339 31.6594 35.9419C31.6565 35.95 31.6555 35.9585 31.6563 35.967V38.2028C31.6555 38.2113 31.6565 38.2199 31.6594 38.2279C31.6622 38.2359 31.6667 38.2432 31.6726 38.2492C31.6784 38.2553 31.6856 38.2599 31.6934 38.2628C31.7012 38.2657 31.7096 38.2667 31.7179 38.2659H33.3338Z" fill="white"/>
<path d="M38.4529 42.1428C38.3811 42.1428 38.3503 42.1113 38.3503 42.0376V39.2179L36.2983 35.1304C36.2675 35.0567 36.2983 35.0146 36.3804 35.0146H37.1037C37.1357 35.016 37.1666 35.0266 37.193 35.0452C37.2193 35.0638 37.2399 35.0897 37.2525 35.1199L38.7915 38.1605L40.3305 35.1199C40.3427 35.0905 40.3625 35.0651 40.3878 35.0465C40.4132 35.028 40.443 35.0169 40.4741 35.0146H41.1769C41.2692 35.0146 41.2898 35.0567 41.259 35.1304L39.207 39.2179V42.0166C39.207 42.0902 39.1762 42.1218 39.1044 42.1218L38.4529 42.1428Z" fill="white"/>
<path d="M44.4065 40.5963C44.236 39.9435 44.1736 39.266 44.2218 38.592C44.1738 37.9163 44.2362 37.2371 44.4065 36.5825C44.5903 36.0936 44.9141 35.6734 45.3353 35.3769C45.7565 35.0805 46.2554 34.9219 46.7663 34.9219C47.2772 34.9219 47.776 35.0805 48.1973 35.3769C48.6185 35.6734 48.9423 36.0936 49.1261 36.5825C49.2906 37.2381 49.3512 37.9166 49.3056 38.592C49.3518 39.2657 49.2911 39.9426 49.1261 40.5963C48.9423 41.0851 48.6185 41.5054 48.1973 41.8018C47.776 42.0983 47.2772 42.2569 46.7663 42.2569C46.2554 42.2569 45.7565 42.0983 45.3353 41.8018C44.9141 41.5054 44.5903 41.0851 44.4065 40.5963ZM48.2386 40.3333C48.4437 39.1802 48.4437 37.9986 48.2386 36.8455C48.1493 36.5217 47.9532 36.2398 47.6837 36.0479C47.4143 35.856 47.0882 35.766 46.7612 35.7934C46.4353 35.7655 46.1102 35.8555 45.8422 36.0476C45.5743 36.2398 45.3803 36.5221 45.294 36.8455C45.0889 37.9986 45.0889 39.1802 45.294 40.3333C45.3803 40.6567 45.5743 40.939 45.8422 41.1312C46.1102 41.3233 46.4353 41.4133 46.7612 41.3854C47.0882 41.4127 47.4143 41.3228 47.6837 41.1309C47.9532 40.939 48.1493 40.657 48.2386 40.3333Z" fill="white"/>
<path d="M50.7134 35.1411C50.7134 35.0675 50.7442 35.0359 50.816 35.0359H54.9917C55.0636 35.0359 55.0944 35.0675 55.0944 35.1411V35.7987C55.0944 35.8723 55.0636 35.9039 54.9917 35.9039H51.6881C51.6798 35.9031 51.6714 35.9042 51.6636 35.907C51.6558 35.9099 51.6487 35.9145 51.6428 35.9206C51.6369 35.9266 51.6324 35.9339 51.6296 35.9419C51.6268 35.95 51.6257 35.9585 51.6265 35.967V38.1291C51.6257 38.1376 51.6268 38.1462 51.6296 38.1542C51.6324 38.1623 51.6369 38.1696 51.6428 38.1756C51.6487 38.1816 51.6558 38.1862 51.6636 38.1891C51.6714 38.192 51.6798 38.1931 51.6881 38.1923H54.4788C54.5454 38.1923 54.5762 38.2238 54.5762 38.2975V38.9551C54.5762 39.0287 54.5454 39.0603 54.4788 39.0603H51.6727C51.6644 39.0595 51.656 39.0605 51.6482 39.0634C51.6404 39.0663 51.6333 39.0709 51.6274 39.077C51.6215 39.083 51.617 39.0903 51.6142 39.0983C51.6114 39.1064 51.6103 39.1149 51.6111 39.1234V42.0378C51.6111 42.1115 51.5855 42.143 51.5137 42.143H50.8109C50.739 42.143 50.7083 42.1115 50.7083 42.0378L50.7134 35.1411Z" fill="white"/>
<path d="M58.6987 35.1411C58.6987 35.0675 58.7295 35.0359 58.8013 35.0359H59.5041C59.5759 35.0359 59.6067 35.0675 59.6067 35.1411V38.0555C59.6059 38.064 59.607 38.0726 59.6098 38.0806C59.6126 38.0886 59.6171 38.0959 59.623 38.1019C59.6289 38.108 59.636 38.1126 59.6438 38.1155C59.6516 38.1184 59.66 38.1194 59.6683 38.1186H62.6847C62.693 38.1194 62.7013 38.1184 62.7092 38.1155C62.717 38.1126 62.7241 38.108 62.73 38.1019C62.7359 38.0959 62.7404 38.0886 62.7432 38.0806C62.746 38.0726 62.747 38.064 62.7462 38.0555V35.1411C62.7462 35.0675 62.777 35.0359 62.8488 35.0359H63.5516C63.6235 35.0359 63.6542 35.0675 63.6542 35.1411V42.0378C63.6542 42.1115 63.6235 42.143 63.5516 42.143H62.8386C62.7668 42.143 62.736 42.1115 62.736 42.0378V39.0498C62.7368 39.0413 62.7357 39.0327 62.7329 39.0247C62.7301 39.0166 62.7256 39.0094 62.7197 39.0033C62.7138 38.9973 62.7067 38.9927 62.6989 38.9898C62.6911 38.9869 62.6827 38.9858 62.6744 38.9866H59.6683C59.66 38.9858 59.6516 38.9869 59.6438 38.9898C59.636 38.9927 59.6289 38.9973 59.623 39.0033C59.6171 39.0094 59.6126 39.0166 59.6098 39.0247C59.607 39.0327 59.6059 39.0413 59.6067 39.0498V42.0378C59.6067 42.1115 59.5759 42.143 59.5041 42.143H58.8013C58.7295 42.143 58.6987 42.1115 58.6987 42.0378V35.1411Z" fill="white"/>
<path d="M67.0869 35.141C67.0907 35.1107 67.1056 35.0831 67.1284 35.0636C67.1512 35.0441 67.1804 35.0342 67.21 35.0357H67.8718C67.9029 35.0327 67.934 35.0418 67.9588 35.0613C67.9835 35.0809 68.0001 35.1093 68.0052 35.141L70.3803 42.0377C70.3803 42.1113 70.3803 42.1429 70.3085 42.1429H69.5955C69.5644 42.146 69.5333 42.1368 69.5085 42.1173C69.4837 42.0977 69.4671 42.0693 69.4621 42.0377L68.9491 40.491H66.1481L65.6351 42.0377C65.6273 42.0678 65.6099 42.0944 65.5858 42.1134C65.5617 42.1324 65.5322 42.1428 65.5018 42.1429H64.7374C64.6656 42.1429 64.6502 42.1113 64.6656 42.0377L67.0869 35.141ZM68.6259 39.6335L67.5383 36.4035L66.4354 39.6335H68.6259Z" fill="white"/>
<path d="M70.8934 41.3803L71.4064 40.9331C71.4156 40.9221 71.427 40.9132 71.4398 40.907C71.4527 40.9009 71.4667 40.8978 71.4808 40.8978C71.495 40.8978 71.509 40.9009 71.5218 40.907C71.5347 40.9132 71.5461 40.9221 71.5552 40.9331C71.8323 41.2046 72.1981 41.3603 72.5812 41.3698C73.3969 41.3698 73.8637 40.8911 73.8637 39.8442V35.1096C73.8637 35.036 73.8945 35.0044 73.9663 35.0044H74.6691C74.7409 35.0044 74.7717 35.036 74.7717 35.1096V39.8442C74.7717 41.4224 73.9047 42.2378 72.5504 42.2378C72.2418 42.2426 71.9358 42.1799 71.6527 42.0538C71.3696 41.9277 71.116 41.7411 70.9088 41.5066C70.8997 41.4993 70.892 41.4903 70.8863 41.4801C70.8805 41.4698 70.8769 41.4585 70.8754 41.4467C70.874 41.435 70.8749 41.4231 70.8779 41.4117C70.881 41.4003 70.8863 41.3896 70.8934 41.3803Z" fill="white"/>
<path d="M75.8435 41.3803L76.3565 40.9331C76.3661 40.9219 76.378 40.913 76.3912 40.9068C76.4045 40.9007 76.4189 40.8975 76.4334 40.8975C76.448 40.8975 76.4624 40.9007 76.4756 40.9068C76.4889 40.913 76.5008 40.9219 76.5104 40.9331C76.7874 41.2046 77.1533 41.3603 77.5364 41.3698C78.352 41.3698 78.8189 40.8911 78.8189 39.8442V35.1096C78.8189 35.036 78.8496 35.0044 78.9214 35.0044H79.614C79.6858 35.0044 79.7166 35.036 79.7166 35.1096V39.8442C79.7166 41.4224 78.8496 42.2378 77.4953 42.2378C77.1866 42.2433 76.8804 42.1809 76.5972 42.0547C76.314 41.9286 76.0605 41.7417 75.8538 41.5066C75.845 41.499 75.8377 41.4897 75.8325 41.4792C75.8272 41.4688 75.824 41.4573 75.8231 41.4456C75.8221 41.4339 75.8234 41.4221 75.8269 41.4109C75.8304 41.3997 75.8361 41.3893 75.8435 41.3803Z" fill="white"/>
<path d="M85.4836 35.141C85.4874 35.1107 85.5023 35.0831 85.5251 35.0636C85.5479 35.0441 85.577 35.0342 85.6067 35.0357H86.2839C86.315 35.0327 86.3461 35.0418 86.3708 35.0613C86.3956 35.0809 86.4122 35.1093 86.4173 35.141L88.7924 42.0377C88.7924 42.1113 88.7924 42.1429 88.7206 42.1429H88.0075C87.9764 42.146 87.9453 42.1368 87.9206 42.1173C87.8958 42.0977 87.8792 42.0693 87.8742 42.0377L87.3612 40.491H84.5551L84.0421 42.0377C84.0342 42.0678 84.0169 42.0944 83.9928 42.1134C83.9687 42.1324 83.9391 42.1428 83.9087 42.1429H83.1957C83.1238 42.1429 83.1084 42.1113 83.1238 42.0377L85.4836 35.141ZM87.0226 39.6335L85.935 36.4035L84.8321 39.6335H87.0226Z" fill="white"/>
<path d="M89.8179 35.1409C89.8179 35.0673 89.8486 35.0357 89.9153 35.0357H90.572C90.6076 35.0311 90.6438 35.0389 90.6745 35.058C90.7053 35.0771 90.7288 35.1064 90.7413 35.1409L93.8808 40.47H93.9218V35.1409C93.9218 35.0673 93.9526 35.0357 94.0244 35.0357H94.6656C94.7375 35.0357 94.7682 35.0673 94.7682 35.1409V42.0377C94.7682 42.1113 94.7375 42.1429 94.6656 42.1429H94.0141C93.9778 42.1478 93.9409 42.1402 93.9092 42.1211C93.8776 42.102 93.8532 42.0727 93.8397 42.0377L90.6899 36.7297H90.6592V42.0377C90.6592 42.1113 90.6592 42.1429 90.5617 42.1429H89.9153C89.8486 42.1429 89.8179 42.1113 89.8179 42.0377V35.1409Z" fill="white"/>
<path d="M96.4185 35.1411C96.4185 35.0675 96.4492 35.0359 96.521 35.0359H98.8552C100.056 35.0359 100.81 35.5409 101.117 36.5509C101.282 37.2174 101.342 37.9063 101.297 38.5921C101.342 39.2762 101.281 39.9633 101.117 40.628C100.81 41.6433 100.056 42.143 98.8552 42.143H96.5416C96.4698 42.143 96.439 42.1115 96.439 42.0378L96.4185 35.1411ZM97.3264 41.2119C97.3257 41.2204 97.3267 41.2289 97.3295 41.237C97.3323 41.245 97.3368 41.2523 97.3427 41.2583C97.3486 41.2644 97.3557 41.269 97.3635 41.2719C97.3714 41.2748 97.3797 41.2758 97.388 41.275H98.6602C99.5169 41.275 100.004 41.012 100.24 40.3018C100.376 39.7433 100.425 39.1662 100.384 38.5921C100.425 38.0162 100.376 37.4374 100.24 36.8771C100.004 36.1669 99.5169 35.9039 98.6602 35.9039H97.388C97.3797 35.9031 97.3714 35.9042 97.3635 35.907C97.3557 35.9099 97.3486 35.9145 97.3427 35.9206C97.3368 35.9266 97.3323 35.9339 97.3295 35.9419C97.3267 35.95 97.3257 35.9585 97.3264 35.967V41.2119Z" fill="white"/>
<path d="M105.042 39.6653V35.1411C105.042 35.0675 105.073 35.0359 105.145 35.0359H105.848C105.919 35.0359 105.95 35.0675 105.95 35.1411V39.6547C105.95 40.8279 106.561 41.3908 107.489 41.3908C108.418 41.3908 109.028 40.8279 109.028 39.6547V35.1411C109.028 35.0675 109.059 35.0359 109.131 35.0359H109.834C109.905 35.0359 109.936 35.0675 109.936 35.1411V39.6653C109.936 41.3487 109.008 42.2588 107.489 42.2588C105.971 42.2588 105.042 41.3487 105.042 39.6653Z" fill="white"/>
<path d="M111.544 35.1411C111.544 35.0675 111.575 35.0359 111.647 35.0359H112.309C112.343 35.0325 112.378 35.0409 112.408 35.0599C112.438 35.079 112.46 35.1075 112.473 35.1411L114.525 39.9283H114.555L116.582 35.1411C116.594 35.1075 116.617 35.079 116.646 35.0599C116.676 35.0409 116.711 35.0325 116.746 35.0359H117.408C117.48 35.0359 117.51 35.0675 117.51 35.1411V42.0378C117.51 42.1115 117.48 42.143 117.408 42.143H116.766C116.695 42.143 116.664 42.1115 116.664 42.0378V37.1139H116.633L114.915 41.0173C114.9 41.0551 114.874 41.0874 114.841 41.11C114.808 41.1325 114.77 41.1442 114.73 41.1435H114.319C114.279 41.1446 114.239 41.1331 114.206 41.1105C114.172 41.088 114.145 41.0555 114.13 41.0173L112.447 37.1139H112.416V42.0536C112.416 42.1273 112.385 42.1588 112.314 42.1588H111.672C111.601 42.1588 111.57 42.1273 111.57 42.0536L111.544 35.1411Z" fill="white"/>
<path d="M123.219 42.143C123.188 42.1429 123.159 42.1326 123.135 42.1136C123.111 42.0946 123.093 42.0679 123.086 42.0378L121.7 39.1339H120.161C120.153 39.1331 120.145 39.1342 120.137 39.1371C120.129 39.14 120.122 39.1446 120.116 39.1506C120.11 39.1567 120.106 39.1639 120.103 39.172C120.1 39.18 120.099 39.1886 120.1 39.1971V42.0378C120.1 42.1115 120.069 42.143 119.997 42.143H119.294C119.223 42.143 119.192 42.1115 119.192 42.0378V35.1411C119.192 35.0675 119.223 35.0359 119.294 35.0359H121.803C123.096 35.0359 123.973 35.8513 123.973 37.0875C123.991 37.52 123.866 37.9459 123.618 38.2964C123.371 38.6468 123.015 38.9012 122.608 39.0182L124.086 42.0168C124.137 42.1009 124.117 42.143 124.024 42.143H123.219ZM121.793 38.2659C122.608 38.2659 123.075 37.8398 123.075 37.0875C123.075 36.3353 122.608 35.9039 121.793 35.9039H120.141C120.133 35.9031 120.124 35.9042 120.116 35.907C120.109 35.9099 120.102 35.9145 120.096 35.9206C120.09 35.9266 120.085 35.9339 120.082 35.9419C120.08 35.95 120.079 35.9585 120.079 35.967V38.2028C120.079 38.2113 120.08 38.2199 120.082 38.2279C120.085 38.2359 120.09 38.2432 120.096 38.2492C120.102 38.2553 120.109 38.2599 120.116 38.2628C120.124 38.2657 120.133 38.2667 120.141 38.2659H121.793Z" fill="white"/>
<path d="M127.2 35.141C127.204 35.1107 127.219 35.0831 127.242 35.0636C127.264 35.0441 127.294 35.0342 127.323 35.0357H127.985C128.016 35.0327 128.047 35.0418 128.072 35.0613C128.097 35.0809 128.113 35.1093 128.118 35.141L130.488 42.0377C130.488 42.1113 130.488 42.1429 130.417 42.1429H129.703C129.673 42.1446 129.643 42.1348 129.62 42.1154C129.596 42.096 129.58 42.0683 129.575 42.0377L129.062 40.491H126.261L125.748 42.0377C125.74 42.0678 125.723 42.0944 125.699 42.1134C125.675 42.1324 125.645 42.1428 125.615 42.1429H124.902C124.83 42.1429 124.81 42.1113 124.83 42.0377L127.2 35.141ZM128.739 39.6335L127.646 36.4035L126.549 39.6335H128.739Z" fill="white"/>
<path d="M131.528 35.1411C131.528 35.0675 131.559 35.0359 131.631 35.0359H132.334C132.406 35.0359 132.436 35.0675 132.436 35.1411V38.0555C132.436 38.064 132.437 38.0726 132.439 38.0806C132.442 38.0886 132.447 38.0959 132.453 38.1019C132.458 38.108 132.466 38.1126 132.473 38.1155C132.481 38.1184 132.49 38.1194 132.498 38.1186H135.53C135.538 38.1194 135.546 38.1184 135.554 38.1155C135.562 38.1126 135.569 38.108 135.575 38.1019C135.581 38.0959 135.585 38.0886 135.588 38.0806C135.591 38.0726 135.592 38.064 135.591 38.0555V35.1411C135.591 35.0675 135.622 35.0359 135.694 35.0359H136.397C136.468 35.0359 136.499 35.0675 136.499 35.1411V42.0378C136.499 42.1115 136.468 42.143 136.397 42.143H135.694C135.622 42.143 135.591 42.1115 135.591 42.0378V39.0498C135.592 39.0413 135.591 39.0327 135.588 39.0247C135.585 39.0166 135.581 39.0094 135.575 39.0033C135.569 38.9973 135.562 38.9927 135.554 38.9898C135.546 38.9869 135.538 38.9858 135.53 38.9866H132.524C132.515 38.9858 132.507 38.9869 132.499 38.9898C132.491 38.9927 132.484 38.9973 132.478 39.0033C132.472 39.0094 132.468 39.0166 132.465 39.0247C132.462 39.0327 132.461 39.0413 132.462 39.0498V42.0378C132.462 42.1115 132.431 42.143 132.359 42.143H131.631C131.559 42.143 131.528 42.1115 131.528 42.0378V35.1411Z" fill="white"/>
</svg>
