<svg width="42" height="42" viewBox="0 0 42 42" fill="none" xmlns="http://www.w3.org/2000/svg">
<rect width="42" height="42" rx="21" fill="#3D434A"/>
<path fill-rule="evenodd" clip-rule="evenodd" d="M17.9507 14.2006C18.7595 13.3919 19.8564 12.9375 21.0001 12.9375C22.1439 12.9375 23.2408 13.3919 24.0495 14.2006C24.8583 15.0094 25.3126 16.1063 25.3126 17.25C25.3126 18.3937 24.8583 19.4906 24.0495 20.2994C23.2408 21.1081 22.1439 21.5625 21.0001 21.5625C19.8564 21.5625 18.7595 21.1081 17.9507 20.2994C17.142 19.4906 16.6876 18.3937 16.6876 17.25C16.6876 16.1063 17.142 15.0094 17.9507 14.2006ZM21.0001 14.0625C20.1547 14.0625 19.344 14.3983 18.7462 14.9961C18.1484 15.5939 17.8126 16.4046 17.8126 17.25C17.8126 18.0954 18.1484 18.9061 18.7462 19.5039C19.344 20.1017 20.1547 20.4375 21.0001 20.4375C21.8455 20.4375 22.6562 20.1017 23.254 19.5039C23.8518 18.9061 24.1876 18.0954 24.1876 17.25C24.1876 16.4046 23.8518 15.5939 23.254 14.9961C22.6562 14.3983 21.8455 14.0625 21.0001 14.0625Z" fill="white"/>
<path fill-rule="evenodd" clip-rule="evenodd" d="M13.9951 28.5C13.9951 25.1844 17.248 22.6875 21.0001 22.6875C24.7523 22.6875 28.0051 25.1844 28.0051 28.5C28.0051 28.8107 27.7533 29.0625 27.4426 29.0625C27.132 29.0625 26.8801 28.8107 26.8801 28.5C26.8801 26.0106 24.358 23.8125 21.0001 23.8125C17.6423 23.8125 15.1201 26.0106 15.1201 28.5C15.1201 28.8107 14.8683 29.0625 14.5576 29.0625C14.247 29.0625 13.9951 28.8107 13.9951 28.5Z" fill="white"/>
</svg>
