<svg width="24" height="24" viewBox="0 0 24 24" fill="none" xmlns="http://www.w3.org/2000/svg">
<path fill-rule="evenodd" clip-rule="evenodd" d="M5 6C5 5.73478 5.10536 5.48043 5.29289 5.29289C5.48043 5.10536 5.73478 5 6 5H18C18.2652 5 18.5196 5.10536 18.7071 5.29289C18.8946 5.48043 19 5.73478 19 6C19 6.26522 18.8946 6.51957 18.7071 6.70711C18.5196 6.89464 18.2652 7 18 7H6C5.73478 7 5.48043 6.89464 5.29289 6.70711C5.10536 6.51957 5 6.26522 5 6ZM5 18C5 17.7348 5.10536 17.4804 5.29289 17.2929C5.48043 17.1054 5.73478 17 6 17H18C18.2652 17 18.5196 17.1054 18.7071 17.2929C18.8946 17.4804 19 17.7348 19 18C19 18.2652 18.8946 18.5196 18.7071 18.7071C18.5196 18.8946 18.2652 19 18 19H6C5.73478 19 5.48043 18.8946 5.29289 18.7071C5.10536 18.5196 5 18.2652 5 18ZM6.65 8.24C6.50473 8.11574 6.32688 8.03573 6.13754 8.00944C5.94819 7.98315 5.75527 8.01168 5.58164 8.09165C5.40801 8.17163 5.26094 8.2997 5.15785 8.46068C5.05477 8.62167 4.99999 8.80884 5 9V15C4.99999 15.1912 5.05477 15.3783 5.15785 15.5393C5.26094 15.7003 5.40801 15.8284 5.58164 15.9083C5.75527 15.9883 5.94819 16.0169 6.13754 15.9906C6.32688 15.9643 6.50473 15.8843 6.65 15.76L10.15 12.76C10.2598 12.6661 10.3479 12.5496 10.4084 12.4184C10.4688 12.2872 10.5001 12.1444 10.5001 12C10.5001 11.8556 10.4688 11.7128 10.4084 11.5816C10.3479 11.4504 10.2598 11.3339 10.15 11.24L6.65 8.24ZM12 10C12 9.73478 12.1054 9.48043 12.2929 9.29289C12.4804 9.10536 12.7348 9 13 9H18C18.2652 9 18.5196 9.10536 18.7071 9.29289C18.8946 9.48043 19 9.73478 19 10C19 10.2652 18.8946 10.5196 18.7071 10.7071C18.5196 10.8946 18.2652 11 18 11H13C12.7348 11 12.4804 10.8946 12.2929 10.7071C12.1054 10.5196 12 10.2652 12 10ZM12 14C12 13.7348 12.1054 13.4804 12.2929 13.2929C12.4804 13.1054 12.7348 13 13 13H18C18.2652 13 18.5196 13.1054 18.7071 13.2929C18.8946 13.4804 19 13.7348 19 14C19 14.2652 18.8946 14.5196 18.7071 14.7071C18.5196 14.8946 18.2652 15 18 15H13C12.7348 15 12.4804 14.8946 12.2929 14.7071C12.1054 14.5196 12 14.2652 12 14Z" fill="#B49164"/>
</svg>
