<svg width="18" height="18" viewBox="0 0 18 18" fill="none" xmlns="http://www.w3.org/2000/svg">
<g clip-path="url(#clip0_29_818)">
<path d="M1.125 16.3125C1.125 15.8737 2.205 15.3562 2.9475 15.1875H3.00937L7.50938 13.5C7.62265 13.4579 7.71937 13.3805 7.78522 13.2792C7.85108 13.1779 7.88255 13.0581 7.875 12.9375V11.4244C7.8747 11.3184 7.84444 11.2146 7.78771 11.125C7.73098 11.0354 7.6501 10.9637 7.55438 10.9181C6.97813 10.645 6.49107 10.2142 6.1496 9.67558C5.80814 9.137 5.62625 8.5127 5.625 7.875C5.625 7.72582 5.56574 7.58274 5.46025 7.47725C5.35476 7.37176 5.21168 7.3125 5.0625 7.3125V6.1875C5.21168 6.1875 5.35476 6.12824 5.46025 6.02275C5.56574 5.91726 5.625 5.77418 5.625 5.625V4.5C5.625 3.60489 5.98058 2.74645 6.61351 2.11351C7.24645 1.48058 8.10489 1.125 9 1.125C9.89511 1.125 10.7536 1.48058 11.3865 2.11351C12.0194 2.74645 12.375 3.60489 12.375 4.5V5.625C12.375 5.77418 12.4343 5.91726 12.5398 6.02275C12.6452 6.12824 12.7883 6.1875 12.9375 6.1875V7.3125H14.0625V6.1875C14.0623 5.99022 14.0102 5.79646 13.9115 5.62565C13.8128 5.45485 13.6709 5.31302 13.5 5.21438V4.5C13.5 3.30653 13.0259 2.16193 12.182 1.31802C11.3381 0.474106 10.1935 0 9 0C7.80653 0 6.66193 0.474106 5.81802 1.31802C4.97411 2.16193 4.5 3.30653 4.5 4.5V5.21438C4.32915 5.31302 4.18724 5.45485 4.08851 5.62565C3.98978 5.79646 3.9377 5.99022 3.9375 6.1875V7.3125C3.93572 7.51169 3.98685 7.70778 4.08568 7.88073C4.18451 8.05368 4.32749 8.19729 4.5 8.29688C4.57418 9.01125 4.81681 9.69782 5.20796 10.3002C5.5991 10.9025 6.12759 11.4035 6.75 11.7619V12.5437L2.64375 14.0625C2.13187 14.1919 0 14.8331 0 16.3125V17.4375C0 17.5867 0.0592632 17.7298 0.164752 17.8352C0.270242 17.9407 0.413316 18 0.5625 18H8.4375V16.875H1.125V16.3125Z" fill="#B49164"/>
<path d="M13.5 9C12.61 9 11.74 9.26392 10.9999 9.75839C10.2599 10.2529 9.68314 10.9557 9.34254 11.7779C9.00195 12.6002 8.91283 13.505 9.08647 14.3779C9.2601 15.2508 9.68869 16.0526 10.318 16.682C10.9474 17.3113 11.7492 17.7399 12.6221 17.9135C13.495 18.0872 14.3998 17.9981 15.2221 17.6575C16.0443 17.3169 16.7471 16.7401 17.2416 16.0001C17.7361 15.26 18 14.39 18 13.5C18 12.3065 17.5259 11.1619 16.682 10.318C15.8381 9.47411 14.6935 9 13.5 9ZM13.5 16.875C12.8325 16.875 12.18 16.6771 11.625 16.3062C11.0699 15.9354 10.6374 15.4083 10.3819 14.7916C10.1265 14.1749 10.0596 13.4963 10.1899 12.8416C10.3201 12.1869 10.6415 11.5855 11.1135 11.1135C11.5855 10.6415 12.1869 10.3201 12.8416 10.1898C13.4963 10.0596 14.1749 10.1265 14.7916 10.3819C15.4083 10.6374 15.9354 11.0699 16.3062 11.625C16.6771 12.18 16.875 12.8325 16.875 13.5C16.875 14.3951 16.5194 15.2536 15.8865 15.8865C15.2536 16.5194 14.3951 16.875 13.5 16.875Z" fill="#B49164"/>
<path d="M13.6631 11.4131L11.9756 13.1006C11.8708 13.206 11.812 13.3485 11.812 13.4971C11.812 13.6458 11.8708 13.7883 11.9756 13.8937L13.6631 15.5812L14.4562 14.7881L13.1681 13.5L14.4562 12.2118L13.6631 11.4131Z" fill="#B49164"/>
</g>
<defs>
<clipPath id="clip0_29_818">
<rect width="18" height="18" fill="#B49164"/>
</clipPath>
</defs>
</svg>
