<svg width="29" height="29" viewBox="0 0 29 29" fill="none" xmlns="http://www.w3.org/2000/svg">
<path d="M25.0034 20.1097L23.5625 19.0312V4.80313C23.5625 4.00996 23.2474 3.24928 22.6866 2.68843C22.1257 2.12758 21.365 1.8125 20.5719 1.8125H9.33438C8.94164 1.8125 8.55275 1.88985 8.18991 2.04015C7.82707 2.19044 7.49739 2.41073 7.21968 2.68843C6.94198 2.96614 6.72169 3.29582 6.5714 3.65866C6.4211 4.0215 6.34375 4.41039 6.34375 4.80313V9.96875H4.53125C4.2909 9.96875 4.06039 10.0642 3.89043 10.2342C3.72048 10.4041 3.625 10.6346 3.625 10.875V24.5322C3.62739 25.2357 3.90791 25.9097 4.40536 26.4071C4.90281 26.9046 5.57681 27.1851 6.28031 27.1875H22.7197C23.4232 27.1851 24.0972 26.9046 24.5946 26.4071C25.0921 25.9097 25.3726 25.2357 25.375 24.5322V20.8438C25.3754 20.7008 25.3419 20.5597 25.2773 20.4321C25.2127 20.3045 25.1189 20.1941 25.0034 20.1097ZM8.15625 4.80313C8.15625 4.49067 8.28037 4.19101 8.50131 3.97006C8.72226 3.74912 9.02192 3.625 9.33438 3.625H20.5719C20.8843 3.625 21.184 3.74912 21.4049 3.97006C21.6259 4.19101 21.75 4.49067 21.75 4.80313V17.7262L11.4097 10.1409C11.2542 10.0284 11.067 9.96807 10.875 9.96875H8.15625V4.80313ZM23.5625 24.5322C23.5625 24.7557 23.4737 24.9701 23.3156 25.1281C23.1576 25.2862 22.9432 25.375 22.7197 25.375H6.28031C6.05678 25.375 5.84241 25.2862 5.68435 25.1281C5.5263 24.9701 5.4375 24.7557 5.4375 24.5322V11.7812H10.5759L23.5625 21.3059V24.5322ZM10.875 7.25C10.875 7.00965 10.9705 6.77914 11.1404 6.60918C11.3104 6.43923 11.5409 6.34375 11.7812 6.34375H18.125C18.3654 6.34375 18.5959 6.43923 18.7658 6.60918C18.9358 6.77914 19.0312 7.00965 19.0312 7.25C19.0312 7.49035 18.9358 7.72086 18.7658 7.89082C18.5959 8.06077 18.3654 8.15625 18.125 8.15625H11.7812C11.5409 8.15625 11.3104 8.06077 11.1404 7.89082C10.9705 7.72086 10.875 7.49035 10.875 7.25ZM19.0312 9.96875C19.0312 10.2091 18.9358 10.4396 18.7658 10.6096C18.5959 10.7795 18.3654 10.875 18.125 10.875H15.4062C15.1659 10.875 14.9354 10.7795 14.7654 10.6096C14.5955 10.4396 14.5 10.2091 14.5 9.96875C14.5 9.7284 14.5955 9.49789 14.7654 9.32793C14.9354 9.15798 15.1659 9.0625 15.4062 9.0625H18.125C18.3654 9.0625 18.5959 9.15798 18.7658 9.32793C18.9358 9.49789 19.0312 9.7284 19.0312 9.96875Z" fill="#B49164"/>
</svg>
