<svg width="33" height="33" viewBox="0 0 33 33" fill="none" xmlns="http://www.w3.org/2000/svg">
<path d="M28.875 9.28125H27.8438V6.06375C27.8438 5.00255 27.4222 3.98482 26.6718 3.23444C25.9214 2.48406 24.9037 2.0625 23.8425 2.0625H15.4688C15.1952 2.0625 14.9329 2.17115 14.7395 2.36455C14.5461 2.55794 14.4375 2.82025 14.4375 3.09375C14.4375 3.36725 14.5461 3.62956 14.7395 3.82295C14.9329 4.01635 15.1952 4.125 15.4688 4.125H23.8425C24.1926 4.12822 24.5354 4.22568 24.8348 4.40715C25.1342 4.58861 25.3792 4.84738 25.5441 5.15625H7.45594C7.62079 4.84738 7.8658 4.58861 8.16522 4.40715C8.46463 4.22568 8.8074 4.12822 9.1575 4.125H11.3438C11.6173 4.125 11.8796 4.01635 12.073 3.82295C12.2664 3.62956 12.375 3.36725 12.375 3.09375C12.375 2.82025 12.2664 2.55794 12.073 2.36455C11.8796 2.17115 11.6173 2.0625 11.3438 2.0625H9.1575C8.0963 2.0625 7.07857 2.48406 6.32819 3.23444C5.57781 3.98482 5.15625 5.00255 5.15625 6.06375V9.28125H4.125C3.8515 9.28125 3.58919 9.3899 3.3958 9.5833C3.2024 9.77669 3.09375 10.039 3.09375 10.3125C3.09375 10.586 3.2024 10.8483 3.3958 11.0417C3.58919 11.2351 3.8515 11.3438 4.125 11.3438H5.15625V25.7812C5.15625 26.0548 5.2649 26.3171 5.4583 26.5105C5.65169 26.7039 5.914 26.8125 6.1875 26.8125H7.21875V27.3281C7.21875 28.2854 7.59902 29.2035 8.27591 29.8803C8.9528 30.5572 9.87086 30.9375 10.8281 30.9375C11.7854 30.9375 12.7034 30.5572 13.3803 29.8803C14.0572 29.2035 14.4375 28.2854 14.4375 27.3281V26.8125H18.5625V27.3281C18.5625 28.2854 18.9428 29.2035 19.6197 29.8803C20.2965 30.5572 21.2146 30.9375 22.1719 30.9375C23.1291 30.9375 24.0472 30.5572 24.7241 29.8803C25.401 29.2035 25.7812 28.2854 25.7812 27.3281V26.8125H26.8125C27.086 26.8125 27.3483 26.7039 27.5417 26.5105C27.7351 26.3171 27.8438 26.0548 27.8438 25.7812V11.3438H28.875C29.1485 11.3438 29.4108 11.2351 29.6042 11.0417C29.7976 10.8483 29.9062 10.586 29.9062 10.3125C29.9062 10.039 29.7976 9.77669 29.6042 9.5833C29.4108 9.3899 29.1485 9.28125 28.875 9.28125ZM12.375 27.3281C12.375 27.7384 12.212 28.1318 11.9219 28.4219C11.6318 28.712 11.2384 28.875 10.8281 28.875C10.4179 28.875 10.0244 28.712 9.73432 28.4219C9.44422 28.1318 9.28125 27.7384 9.28125 27.3281V26.8125H12.375V27.3281ZM23.7188 27.3281C23.7188 27.7384 23.5558 28.1318 23.2657 28.4219C22.9756 28.712 22.5821 28.875 22.1719 28.875C21.7616 28.875 21.3682 28.712 21.0781 28.4219C20.788 28.1318 20.625 27.7384 20.625 27.3281V26.8125H23.7188V27.3281ZM25.7812 24.75H7.21875V20.625H22.6875C22.961 20.625 23.2233 20.5164 23.4167 20.323C23.6101 20.1296 23.7188 19.8673 23.7188 19.5938C23.7188 19.3202 23.6101 19.0579 23.4167 18.8645C23.2233 18.6711 22.961 18.5625 22.6875 18.5625H7.21875V7.21875H25.7812V24.75Z" fill="#B49164"/>
<path d="M11.3438 21.6562C11.1398 21.6562 10.9404 21.7167 10.7708 21.83C10.6012 21.9434 10.4691 22.1044 10.391 22.2929C10.3129 22.4813 10.2925 22.6886 10.3323 22.8887C10.3721 23.0887 10.4703 23.2725 10.6145 23.4167C10.7588 23.5609 10.9425 23.6591 11.1426 23.6989C11.3426 23.7387 11.55 23.7183 11.7384 23.6403C11.9268 23.5622 12.0879 23.43 12.2012 23.2604C12.3145 23.0908 12.375 22.8915 12.375 22.6875C12.375 22.414 12.2664 22.1517 12.073 21.9583C11.8796 21.7649 11.6173 21.6562 11.3438 21.6562ZM21.6563 21.6562C21.4523 21.6562 21.2529 21.7167 21.0833 21.83C20.9137 21.9434 20.7816 22.1044 20.7035 22.2929C20.6254 22.4813 20.605 22.6886 20.6448 22.8887C20.6846 23.0887 20.7828 23.2725 20.927 23.4167C21.0713 23.5609 21.255 23.6591 21.4551 23.6989C21.6551 23.7387 21.8625 23.7183 22.0509 23.6403C22.2393 23.5622 22.4004 23.43 22.5137 23.2604C22.627 23.0908 22.6875 22.8915 22.6875 22.6875C22.6875 22.414 22.5789 22.1517 22.3855 21.9583C22.1921 21.7649 21.9298 21.6562 21.6563 21.6562Z" fill="#B49164"/>
</svg>
