<svg width="36" height="36" viewBox="0 0 36 36" fill="none" xmlns="http://www.w3.org/2000/svg">
<path d="M6.75 25.4999H6C5.60218 25.4999 5.22064 25.3419 4.93934 25.0606C4.65804 24.7793 4.5 24.3977 4.5 23.9999C4.5 22.8065 4.97411 21.6619 5.81802 20.8179C6.66193 19.974 7.80653 19.4999 9 19.4999H10.5M10.5 14.9249C9.94922 14.8123 9.43082 14.5772 8.98315 14.2372C8.53547 13.8972 8.16998 13.4608 7.9137 12.9604C7.65743 12.4601 7.51694 11.9085 7.50262 11.3465C7.4883 10.7845 7.60052 10.2265 7.83098 9.71371C8.06144 9.20094 8.40424 8.74655 8.83401 8.38415C9.26379 8.02174 9.76955 7.76061 10.3139 7.62006C10.8582 7.47951 11.4272 7.46315 11.9787 7.57217C12.5302 7.6812 13.0501 7.91283 13.5 8.24992M29.25 25.4999H30C30.3978 25.4999 30.7794 25.3419 31.0607 25.0606C31.342 24.7793 31.5 24.3977 31.5 23.9999C31.5 22.8065 31.0259 21.6619 30.182 20.8179C29.3381 19.974 28.1935 19.4999 27 19.4999H25.5M25.5 14.9249C26.0508 14.8123 26.5692 14.5772 27.0169 14.2372C27.4645 13.8972 27.83 13.4608 28.0863 12.9604C28.3426 12.4601 28.4831 11.9085 28.4974 11.3465C28.5117 10.7845 28.3995 10.2265 28.169 9.71371C27.9386 9.20094 27.5958 8.74655 27.166 8.38415C26.7362 8.02174 26.2304 7.76061 25.6861 7.62006C25.1418 7.47951 24.5728 7.46315 24.0213 7.57217C23.4698 7.6812 22.9499 7.91283 22.5 8.24992M23.25 28.4999H12.75C12.3522 28.4999 11.9706 28.3419 11.6893 28.0606C11.408 27.7793 11.25 27.3977 11.25 26.9999C11.25 25.8065 11.7241 24.6619 12.568 23.8179C13.4119 22.974 14.5565 22.4999 15.75 22.4999H20.25C21.4435 22.4999 22.5881 22.974 23.432 23.8179C24.2759 24.6619 24.75 25.8065 24.75 26.9999C24.75 27.3977 24.592 27.7793 24.3107 28.0606C24.0294 28.3419 23.6478 28.4999 23.25 28.4999ZM21.75 14.2499C21.75 15.2445 21.3549 16.1983 20.6517 16.9016C19.9484 17.6048 18.9946 17.9999 18 17.9999C17.0054 17.9999 16.0516 17.6048 15.3483 16.9016C14.6451 16.1983 14.25 15.2445 14.25 14.2499C14.25 13.2554 14.6451 12.3015 15.3483 11.5983C16.0516 10.895 17.0054 10.4999 18 10.4999C18.9946 10.4999 19.9484 10.895 20.6517 11.5983C21.3549 12.3015 21.75 13.2554 21.75 14.2499Z" stroke="#B49164" stroke-width="2" stroke-linecap="round"/>
</svg>
