<svg width="17" height="17" viewBox="0 0 17 17" fill="none" xmlns="http://www.w3.org/2000/svg">
<path d="M16.8034 6.49188L8.83468 0.116879C8.74046 0.0414395 8.62335 0.000335693 8.50265 0.000335693C8.38194 0.000335693 8.26484 0.0414395 8.17062 0.116879L0.201867 6.49188C0.116253 6.56056 0.0540134 6.65408 0.0237058 6.75957C-0.00660171 6.86506 -0.00348975 6.97736 0.032614 7.08101C0.0687177 7.18466 0.136041 7.27459 0.225328 7.33842C0.314615 7.40226 0.421484 7.43687 0.531242 7.4375H1.59374V16.4688C1.59374 16.6096 1.64971 16.7448 1.74934 16.8444C1.84897 16.944 1.9841 17 2.12499 17H6.90624C7.04714 17 7.18226 16.944 7.28189 16.8444C7.38152 16.7448 7.43749 16.6096 7.43749 16.4688V11.6875H9.56249V16.4688C9.56249 16.6096 9.61846 16.7448 9.71809 16.8444C9.81772 16.944 9.95285 17 10.0937 17H14.875C15.0159 17 15.151 16.944 15.2506 16.8444C15.3503 16.7448 15.4062 16.6096 15.4062 16.4688V7.4375H16.4687C16.579 7.43797 16.6866 7.40415 16.7767 7.34072C16.8668 7.2773 16.935 7.18741 16.9718 7.08351C17.0086 6.97961 17.0121 6.86685 16.982 6.76085C16.9518 6.65484 16.8894 6.56085 16.8034 6.49188ZM12.75 6.375V7.4375H14.3437V15.9375H10.625V11.1563C10.625 11.0154 10.569 10.8802 10.4694 10.7806C10.3698 10.681 10.2346 10.625 10.0937 10.625H6.90624C6.76535 10.625 6.63022 10.681 6.53059 10.7806C6.43096 10.8802 6.37499 11.0154 6.37499 11.1563V15.9375H2.65624V7.4375H4.24999V6.375H2.0453L8.49999 1.21125L14.9547 6.375H12.75Z" fill="black"/>
<path d="M10.0938 5.84375H6.90625C6.61285 5.84375 6.375 6.0816 6.375 6.375V6.90625C6.375 7.19965 6.61285 7.4375 6.90625 7.4375H10.0938C10.3872 7.4375 10.625 7.19965 10.625 6.90625V6.375C10.625 6.0816 10.3872 5.84375 10.0938 5.84375Z" fill="black"/>
</svg>
