<svg width="20" height="16" viewBox="0 0 20 16" fill="none" xmlns="http://www.w3.org/2000/svg">
<path d="M2.5 12.9993H2C1.73478 12.9993 1.48043 12.8939 1.29289 12.7064C1.10536 12.5189 1 12.2645 1 11.9993C1 11.2036 1.31607 10.4406 1.87868 9.87798C2.44129 9.31537 3.20435 8.9993 4 8.9993H5M5 5.9493C4.63282 5.8742 4.28721 5.71751 3.98876 5.49081C3.69031 5.26412 3.44665 4.97322 3.2758 4.63964C3.10495 4.30606 3.01129 3.93834 3.00175 3.56368C2.9922 3.18902 3.06701 2.817 3.22065 2.47515C3.37429 2.13331 3.60282 1.83038 3.88934 1.58878C4.17586 1.34718 4.51303 1.17309 4.87592 1.07939C5.2388 0.985691 5.61811 0.97478 5.98578 1.04746C6.35344 1.12015 6.70007 1.27457 7 1.4993M17.5 12.9993H18C18.2652 12.9993 18.5196 12.8939 18.7071 12.7064C18.8946 12.5189 19 12.2645 19 11.9993C19 11.2036 18.6839 10.4406 18.1213 9.87798C17.5587 9.31537 16.7956 8.9993 16 8.9993H15M15 5.9493C15.3672 5.8742 15.7128 5.71751 16.0112 5.49081C16.3097 5.26412 16.5533 4.97322 16.7242 4.63964C16.895 4.30606 16.9887 3.93834 16.9983 3.56368C17.0078 3.18902 16.933 2.817 16.7793 2.47515C16.6257 2.13331 16.3972 1.83038 16.1107 1.58878C15.8241 1.34718 15.487 1.17309 15.1241 1.07939C14.7612 0.985691 14.3819 0.97478 14.0142 1.04746C13.6466 1.12015 13.2999 1.27457 13 1.4993M13.5 14.9993H6.5C6.23478 14.9993 5.98043 14.8939 5.79289 14.7064C5.60536 14.5189 5.5 14.2645 5.5 13.9993C5.5 13.2036 5.81607 12.4406 6.37868 11.878C6.94129 11.3154 7.70435 10.9993 8.5 10.9993H11.5C12.2956 10.9993 13.0587 11.3154 13.6213 11.878C14.1839 12.4406 14.5 13.2036 14.5 13.9993C14.5 14.2645 14.3946 14.5189 14.2071 14.7064C14.0196 14.8939 13.7652 14.9993 13.5 14.9993ZM12.5 5.4993C12.5 6.16234 12.2366 6.79822 11.7678 7.26707C11.2989 7.73591 10.663 7.9993 10 7.9993C9.33696 7.9993 8.70107 7.73591 8.23223 7.26707C7.76339 6.79822 7.5 6.16234 7.5 5.4993C7.5 4.83626 7.76339 4.20037 8.23223 3.73153C8.70107 3.26269 9.33696 2.9993 10 2.9993C10.663 2.9993 11.2989 3.26269 11.7678 3.73153C12.2366 4.20037 12.5 4.83626 12.5 5.4993Z" stroke="black" stroke-width="2" stroke-linecap="round"/>
</svg>
